<svg width="207" height="207" viewBox="0 0 207 207" fill="none" xmlns="http://www.w3.org/2000/svg">
<g clip-path="url(#clip0_96_9)">
<path d="M9.05566 0H178.094C185.496 2.7762 187.271 5.17973 187.271 12.4227C187.271 29.6704 187.271 46.9182 187.271 64.1659C187.271 66.3264 187.337 68.4869 187.271 70.6474C187.216 71.9058 187.567 72.5054 189.136 72.3865C190.706 72.2677 192.451 72.3865 194.105 72.3865C202.623 72.3865 207.048 76.3456 207.048 83.9558V195.328C207.048 203.079 202.641 207.032 194.02 207.032H32.6547C24.1544 207.032 19.7474 203.079 19.7413 195.436C19.7413 181.083 19.7413 166.732 19.7413 152.383C19.7413 147.128 19.6689 141.873 19.7836 136.617C19.8198 134.997 19.2463 134.505 17.4955 134.635C15.7448 134.765 14.0363 134.667 12.3036 134.635C4.73913 134.619 9.61589e-06 130.433 9.61589e-06 123.687C9.61589e-06 86.1019 9.61589e-06 48.5097 9.61589e-06 10.9104C-0.0366307 9.90135 0.0565503 8.8919 0.277716 7.90192C1.40062 3.64579 4.75724 1.40971 9.05566 0ZM74.1175 78.4196C74.1739 78.6979 74.2587 78.9709 74.371 79.2352C79.1041 86.5808 83.8674 93.9102 88.5582 101.277C89.1619 102.25 89.989 102.266 90.973 102.266C100.838 102.266 110.698 102.266 120.555 102.266C122.927 102.266 124.292 103.378 124.334 105.188C124.376 106.997 123.012 108.186 120.712 108.31C120.036 108.348 119.353 108.31 118.677 108.31C88.7816 108.31 58.8879 108.299 28.9962 108.277C27.1549 108.277 26.4183 108.499 26.4244 110.438C26.5009 138.862 26.521 167.291 26.4848 195.722C26.4848 199.584 28.0303 200.94 32.3407 200.94H194.316C198.596 200.94 200.178 199.525 200.178 195.695C200.178 167.271 200.192 138.843 200.22 110.411C200.22 108.753 199.804 108.277 197.896 108.283C178.088 108.353 158.287 108.326 138.479 108.321C137.654 108.37 136.825 108.332 136.01 108.207C134.199 107.797 133.136 106.689 133.329 104.966C133.51 103.346 134.627 102.439 136.45 102.266C137.121 102.206 137.803 102.239 138.479 102.239C158.287 102.239 178.088 102.239 197.896 102.282C199.81 102.282 200.263 101.796 200.226 100.122C200.106 94.8014 200.184 89.4812 200.178 84.1557C200.178 79.5809 198.856 78.3818 193.803 78.3818H74.1175V78.4196ZM54.1045 6.04391C59.0126 13.6488 63.7155 20.8485 68.2917 28.1131C69.155 29.485 70.1028 29.9171 71.8354 29.9009C81.3982 29.8253 90.961 29.8577 100.53 29.8685C103.162 29.8685 104.72 31.0351 104.701 32.8985C104.683 34.762 103.096 35.8854 100.475 35.9286C99.8717 35.9286 99.268 35.9286 98.6643 35.9286C68.8451 35.9286 39.0258 35.916 9.20658 35.8908C7.25056 35.8908 6.7193 36.2689 6.7193 38.0837C6.79577 65.1652 6.81388 92.2466 6.77363 119.328C6.77363 120.743 6.77363 122.158 6.77363 123.573C6.77363 127.046 8.41572 128.516 12.2372 128.543C13.891 128.477 15.5474 128.489 17.1997 128.58C19.3308 128.796 19.7896 128.04 19.7775 126.242C19.6991 112.031 19.7775 97.8153 19.7172 83.5724C19.7172 80.7908 20.2484 78.2144 22.301 76.0107C24.9272 73.2291 28.3381 72.2299 32.3287 72.2623C80.8186 72.3019 129.317 72.3253 177.823 72.3325C180.032 72.3325 180.551 71.7924 180.527 69.8858C180.419 59.3103 180.419 48.7348 180.527 38.1593C180.527 36.3121 179.996 35.8314 177.925 35.8368C157.894 35.9124 137.863 35.8854 117.838 35.8746C115.212 35.8746 113.612 34.7079 113.612 32.8661C113.612 31.0243 115.152 29.8523 117.772 29.8199C118.375 29.8199 118.979 29.8199 119.583 29.8199C139.01 29.8199 158.438 29.7875 177.859 29.8739C180.111 29.8739 180.606 29.3014 180.551 27.4002C180.407 22.1502 180.503 16.8895 180.497 11.6341C180.497 7.21597 179.133 6.0007 174.213 6.0007H54.1045V6.04391ZM61.6509 29.8631C56.5435 21.9774 51.6836 14.4805 46.8781 6.95671C46.3106 6.06012 45.5439 6.06012 44.6202 6.06012C33.7896 6.06012 22.9591 6.06012 12.1285 6.06012C8.47609 6.06012 6.79778 7.60485 6.78571 10.9212C6.78571 16.506 6.85212 22.0908 6.73137 27.6648C6.69515 29.377 7.09964 29.9225 9.14621 29.9117C25.8388 29.8253 42.5374 29.8631 59.2541 29.8631H61.6509ZM81.0903 102.239C81.0345 101.948 80.9497 101.663 80.8367 101.385C76.0976 94.0452 71.3344 86.7158 66.6375 79.3486C66.0338 78.3602 65.1644 78.398 64.1804 78.398C53.4867 78.398 42.795 78.398 32.1053 78.398C28.1087 78.398 26.5451 79.8131 26.527 83.4481C26.527 89.0438 26.5753 94.634 26.4848 100.224C26.4848 101.774 26.9013 102.282 28.7245 102.266C38.5891 102.185 48.4538 102.228 58.3063 102.228L81.0903 102.239Z" fill="white"/>
<path d="M152.328 121.262C155.745 121.305 158.365 122.229 160.478 124.114C168.797 131.524 177.183 138.875 185.357 146.415C191.394 151.994 191.304 160.123 185.23 165.67C177.12 173.073 168.93 180.408 160.659 187.675C156.077 191.725 149.237 191.709 144.866 187.799C140.495 183.888 140.495 177.769 145.011 173.669C151.08 168.153 157.204 162.683 163.382 157.261C164.499 156.278 164.547 155.748 163.382 154.744C157.204 149.321 151.08 143.851 145.011 138.335C141.89 135.521 140.821 132.118 142.089 128.316C143.297 124.686 146.134 122.412 150.275 121.521C150.953 121.397 151.639 121.31 152.328 121.262V121.262ZM183.003 155.975C182.924 154.355 182.61 152.767 181.403 151.622C172.951 143.579 164.106 135.861 155.268 128.154C153.976 127.025 152.25 127.046 150.632 127.83C149.922 128.157 149.335 128.662 148.942 129.284C148.55 129.906 148.369 130.617 148.422 131.33C148.452 132.701 149.382 133.679 150.42 134.608C157.299 140.729 164.167 146.871 171.025 153.031C173.573 155.316 173.561 156.666 170.983 158.973C164.016 165.216 157.045 171.458 150.07 177.699C147.963 179.594 147.836 181.777 149.605 183.435C151.374 185.093 153.988 185.055 156.174 183.121C164.223 175.949 172.273 168.761 180.322 161.56C181.992 160.08 182.953 158.077 183.003 155.975V155.975Z" fill="white"/>
<path d="M85.0748 131.157C85.105 134.106 83.7708 136.493 81.4827 138.535C75.4456 143.903 69.493 149.337 63.4137 154.641C62.2063 155.721 62.2063 156.261 63.4137 157.309C69.493 162.624 75.4879 168.036 81.4887 173.41C84.616 176.208 85.8173 179.546 84.6703 183.375C82.4426 190.851 72.3486 193.178 65.9915 187.61C57.7146 180.356 49.5827 172.967 41.4024 165.632C40.1807 164.532 39.1782 163.254 38.4382 161.852C35.8 156.839 36.6271 150.812 40.9677 146.82C49.3633 139.1 57.8716 131.481 66.4926 123.962C69.9398 120.948 74.2321 120.414 78.6211 122.196C82.841 123.903 84.9359 127.014 85.0748 131.157ZM43.7931 156.094C43.7931 158.481 45.0005 160.312 46.8479 161.949C54.3218 168.596 61.7676 175.257 69.1851 181.933C69.8561 182.572 70.5655 183.178 71.3102 183.748C72.1306 184.356 73.1761 184.667 74.2402 184.619C75.3044 184.571 76.3097 184.168 77.0575 183.489C77.7655 182.828 78.1897 181.965 78.2549 181.052C78.32 180.138 78.0221 179.234 77.4137 178.498C76.9501 177.967 76.4414 177.469 75.8923 177.007L55.7948 159.011C53.0661 156.569 53.0721 155.376 55.7948 152.934C62.7617 146.69 69.7325 140.449 76.7074 134.208C78.7298 132.388 78.8203 130.049 77.0575 128.472C75.2947 126.895 72.6927 126.928 70.6401 128.748C62.4779 136.011 54.3359 143.299 46.214 150.612C45.4 151.32 44.7634 152.175 44.3461 153.12C43.9288 154.065 43.7403 155.079 43.7931 156.094Z" fill="white"/>
<path d="M103.687 191.331C95.9355 191.331 90.804 184.747 93.3637 177.904C97.6742 166.362 102.081 154.852 106.452 143.336C108.499 137.935 110.485 132.491 112.628 127.133C113.124 125.91 113.884 124.786 114.866 123.826C115.847 122.865 117.03 122.087 118.348 121.536C119.665 120.985 121.091 120.671 122.544 120.613C123.997 120.555 125.448 120.753 126.815 121.197C128.182 121.641 129.439 122.321 130.512 123.199C131.585 124.077 132.455 125.135 133.071 126.314C133.687 127.493 134.038 128.768 134.103 130.068C134.168 131.368 133.946 132.667 133.45 133.89C127.059 150.759 120.665 167.629 114.27 184.499C113.566 186.506 112.155 188.257 110.248 189.488C108.34 190.719 106.039 191.366 103.687 191.331V191.331ZM104.152 185.249C106.223 185.158 107.382 183.797 108.124 181.825C112.58 169.975 117.096 158.146 121.581 146.312C123.437 141.473 125.26 136.632 127.051 131.789C127.402 130.994 127.43 130.115 127.131 129.304C126.832 128.493 126.225 127.801 125.415 127.349C123.827 126.328 122.173 126.447 120.585 127.349C119.378 128.056 118.955 129.239 118.52 130.384C115.019 139.613 111.523 148.842 108.034 158.071C105.293 165.33 102.516 172.578 99.8174 179.848C98.7126 182.776 100.602 185.26 104.152 185.26V185.249Z" fill="white"/>
<path d="M145.446 93.3647C144.57 93.3467 143.735 93.0333 143.107 92.4874C142.479 91.9415 142.104 91.2034 142.059 90.4211C142.053 90.0168 142.137 89.6156 142.305 89.2404C142.474 88.8652 142.723 88.5235 143.04 88.2349C143.356 87.9463 143.733 87.7165 144.149 87.5587C144.565 87.4009 145.012 87.3182 145.464 87.3154C145.897 87.3068 146.328 87.3755 146.732 87.5174C147.135 87.6594 147.503 87.8718 147.814 88.1423C148.125 88.4128 148.372 88.7359 148.542 89.0928C148.712 89.4498 148.8 89.8333 148.802 90.2212C148.816 90.6256 148.74 91.0283 148.578 91.406C148.416 91.7838 148.172 92.1289 147.859 92.4214C147.547 92.7139 147.173 92.948 146.758 93.1099C146.344 93.2718 145.898 93.3585 145.446 93.3647V93.3647Z" fill="white"/>
<path d="M166.195 90.2698C166.174 91.0859 165.8 91.8629 165.154 92.4387C164.507 93.0144 163.636 93.3442 162.724 93.3593C161.827 93.3435 160.974 93.0098 160.353 92.4314C159.731 91.853 159.392 91.0774 159.41 90.2752C159.427 89.473 159.8 88.71 160.447 88.1539C161.093 87.5978 161.96 87.2942 162.857 87.31C163.732 87.3236 164.568 87.639 165.19 88.1904C165.812 88.7418 166.172 89.4867 166.195 90.2698V90.2698Z" fill="white"/>
<path d="M182.683 87.31C183.558 87.3242 184.391 87.6482 185 88.2111C185.609 88.774 185.943 89.5298 185.931 90.313C185.934 90.9156 185.735 91.5052 185.361 92.006C184.986 92.5069 184.453 92.896 183.829 93.1233C183.205 93.3506 182.52 93.4057 181.861 93.2816C181.201 93.1574 180.599 92.8597 180.131 92.4266C179.662 91.9936 179.349 91.4451 179.232 90.8516C179.115 90.2582 179.2 89.6471 179.474 89.0968C179.748 88.5465 180.201 88.0823 180.772 87.7638C181.344 87.4454 182.01 87.2873 182.683 87.31V87.31Z" fill="white"/>
<path d="M86.3305 58.6081H119.993C120.744 58.5681 121.498 58.588 122.245 58.6676C124.014 58.943 125.107 59.9098 125.161 61.5356C125.215 63.2694 124.111 64.2848 122.251 64.625C121.651 64.6935 121.044 64.7098 120.44 64.6737H51.5508C51.0233 64.7018 50.4941 64.6891 49.969 64.6358C48.1096 64.3496 46.9505 63.3936 46.9505 61.6436C46.9505 59.8936 48.0734 58.943 49.969 58.6513C50.643 58.591 51.3211 58.5765 51.9975 58.6081H86.3305Z" fill="white"/>
<path d="M75.9346 44.8622C83.2395 44.8622 90.5444 44.8622 97.8493 44.8622C100.711 44.8622 102.214 45.9424 102.202 47.9084C102.19 49.8744 100.681 50.9169 97.795 50.9169C83.0323 50.9169 68.2716 50.9169 53.5129 50.9169C50.7358 50.9169 49.1843 49.734 49.2869 47.7572C49.3654 45.9424 50.8264 44.8676 53.3559 44.8622C60.8721 44.8297 68.4003 44.8622 75.9346 44.8622Z" fill="white"/>
<path d="M151.857 58.6081C155.479 58.6081 159.102 58.6081 162.724 58.6081C165.175 58.6081 166.708 59.8072 166.739 61.5896C166.769 63.372 165.217 64.6467 162.808 64.6521C155.431 64.6773 148.056 64.6773 140.682 64.6521C138.268 64.6521 136.698 63.4584 136.668 61.6652C136.638 59.872 138.171 58.6297 140.598 58.6081C144.329 58.5865 148.09 58.6081 151.857 58.6081Z" fill="white"/>
<path d="M28.7668 50.9223C27.1851 50.9223 25.6094 50.9763 24.0337 50.9223C21.9449 50.8304 20.5744 49.5612 20.5986 47.8652C20.6227 46.1692 21.9932 44.927 24.1484 44.8838C27.3058 44.8243 30.4632 44.8189 33.6146 44.8838C34.0669 44.8706 34.5176 44.9396 34.9392 45.0868C35.3609 45.234 35.7448 45.4562 36.0676 45.74C36.3905 46.0238 36.6456 46.3633 36.8175 46.7378C36.9894 47.1124 37.0746 47.5143 37.0678 47.9192C37.0678 49.5828 35.6189 50.825 33.524 50.9061C31.9242 50.9709 30.3425 50.9223 28.7668 50.9223Z" fill="white"/>
<path d="M166.256 17.8779C166.253 18.6948 165.893 19.4784 165.254 20.0616C164.614 20.6448 163.746 20.9815 162.833 20.9998C162.389 20.9973 161.95 20.9166 161.54 20.7623C161.131 20.608 160.76 20.3831 160.448 20.1005C159.818 19.5297 159.467 18.7584 159.473 17.9562C159.479 17.154 159.84 16.3867 160.478 15.823C161.116 15.2593 161.978 14.9454 162.875 14.9505C163.75 14.9581 164.589 15.266 165.218 15.8107C165.847 16.3554 166.219 17.0954 166.256 17.8779V17.8779Z" fill="white"/>
<path d="M125.801 20.989C124.93 20.9954 124.09 20.6997 123.457 20.1639C122.825 19.6282 122.449 18.894 122.408 18.1155C122.38 17.7136 122.444 17.3108 122.595 16.9315C122.747 16.5522 122.982 16.2044 123.288 15.909C123.594 15.6136 123.964 15.3768 124.375 15.213C124.786 15.0491 125.23 14.9617 125.68 14.9558C126.557 14.9461 127.404 15.2386 128.046 15.7726C128.687 16.3066 129.075 17.0411 129.128 17.8239C129.14 18.6342 128.799 19.4171 128.179 20.0076C127.558 20.598 126.706 20.9498 125.801 20.989V20.989Z" fill="white"/>
<path d="M146.424 17.8725C146.447 18.476 146.267 19.0719 145.908 19.5833C145.549 20.0948 145.027 20.4984 144.41 20.7422C143.792 20.986 143.107 21.0588 142.443 20.9513C141.779 20.8438 141.166 20.5609 140.683 20.1389C140.2 19.717 139.869 19.1754 139.733 18.5839C139.598 17.9924 139.663 17.378 139.92 16.8199C140.178 16.2618 140.617 15.7854 141.18 15.4523C141.743 15.1191 142.404 14.9443 143.079 14.9505C143.951 14.957 144.785 15.2648 145.409 15.8095C146.032 16.3541 146.396 17.0933 146.424 17.8725V17.8725Z" fill="white"/>
</g>
<defs>
<clipPath id="clip0_96_9">
<rect width="207" height="207" fill="white"/>
</clipPath>
</defs>
</svg>
