<svg width="207" height="207" viewBox="0 0 207 207" fill="none" xmlns="http://www.w3.org/2000/svg">
<path d="M57.4176 0C58.9164 0.916406 59.9516 2.15625 59.3262 3.98906C58.7008 5.82188 57.1319 6.08602 55.3851 6.08063C40.6991 6.05547 26.0114 6.05547 11.3218 6.08063C7.26212 6.08063 6.06524 7.29891 6.06524 11.4173V74.2613C6.06524 78.2988 7.32142 79.5387 11.4027 79.5441C15.1766 79.5441 18.9505 79.5441 22.7244 79.5441C27.2586 79.5441 29.1293 81.42 29.1401 85.8942C29.1401 89.9372 29.1401 93.9802 29.1401 98.0285C30.1052 98.2711 30.5257 97.4895 31.0702 97.1013C37.2379 92.5301 43.4703 88.0451 49.4924 83.2798C52.6864 80.6929 56.706 79.3436 60.8142 79.4794C86.2181 79.6034 111.622 79.5387 137.026 79.5387H162.904C166.678 79.5387 168.053 78.2018 168.053 74.4553C168.053 53.3672 168.053 32.2791 168.053 11.1909C168.053 7.28274 166.77 6.05906 162.764 6.05906H73.0255C72.5565 6.05906 72.082 6.03211 71.613 6.05906C69.8662 6.17227 68.2973 5.82727 67.6612 3.98906C67.025 2.15086 68.0817 0.943359 69.5481 0H166.188C166.33 0.133866 166.49 0.248084 166.662 0.339609C171.784 2.15625 174.14 5.34211 174.14 10.8082C174.14 32.0904 174.14 53.3726 174.14 74.6548C174.14 81.5871 170.01 85.6085 162.996 85.6085C129.11 85.6085 95.2288 85.5906 61.3533 85.5546C58.2686 85.4372 55.2448 86.4341 52.835 88.3631C45.8263 93.8346 38.6396 99.0527 31.5177 104.368C30.9786 104.767 30.4394 105.176 29.868 105.532C26.3097 107.753 23.1935 106.131 23.1072 101.904C23.0048 97.0528 23.021 92.2013 23.1072 87.3497C23.1072 85.905 22.6705 85.5223 21.285 85.5708C18.3898 85.6678 15.4839 85.4468 12.5941 85.6301C6.38872 86.029 2.02714 83.7056 0 77.625V8.08594C0.50571 6.14021 1.52195 4.36482 2.94367 2.94329C4.36539 1.52175 6.14101 0.505645 8.08699 0L57.4176 0Z" fill="white"/>
<path d="M178.722 207C170.096 200.601 161.416 194.224 152.812 187.772C151.273 186.574 149.37 185.942 147.42 185.982C118.577 186.02 89.7333 185.901 60.8897 186.09C54.4201 186.133 49.3307 181.944 49.3954 174.554C49.5715 153.671 49.5715 132.784 49.3954 111.893C49.3414 104.977 53.9672 100.422 60.7657 100.46C91.4261 100.632 122.092 100.535 152.752 100.535C153.157 100.535 153.561 100.535 153.966 100.535C156.192 100.594 157.513 101.716 157.508 103.527C157.502 105.338 156.176 106.476 153.955 106.583C153.351 106.616 152.742 106.583 152.138 106.583H61.1592C56.6036 106.583 55.5199 107.662 55.5199 112.141C55.5199 132.891 55.5199 153.644 55.5199 174.397C55.5199 178.791 56.6467 179.928 60.9975 179.928C89.5715 179.928 118.146 179.966 146.72 179.885C150.428 179.773 154.056 180.976 156.963 183.281C163.233 188.171 169.67 192.833 176.043 197.588C176.517 197.944 177.019 198.267 177.509 198.607C178.135 198.17 177.865 197.583 177.871 197.097C177.898 193.464 177.871 189.825 177.871 186.187C177.871 181.901 179.865 179.939 184.205 179.928C188.249 179.928 192.292 179.928 196.336 179.928C199.495 179.928 200.924 178.505 200.924 175.362C200.924 153.936 200.924 132.509 200.924 111.079C200.924 108.039 199.511 106.61 196.471 106.6C187.78 106.573 179.084 106.6 170.393 106.6C169.718 106.62 169.043 106.601 168.371 106.54C166.603 106.314 165.427 105.063 165.444 103.5C165.444 101.845 166.738 100.562 168.635 100.557C178.34 100.557 188.044 100.465 197.748 100.611C201.749 100.675 204.488 102.993 206.202 106.54C206.488 107.133 206.423 107.877 207 108.335V177.891C204.795 184.677 200.266 186.359 194.783 186.041C191.764 185.863 188.734 186.079 185.71 185.977C184.303 185.928 183.877 186.338 183.904 187.761C183.99 192.397 183.904 197.033 183.952 201.669C183.979 204.003 183.305 205.884 181.122 207H178.722Z" fill="white"/>
<path d="M87.4635 155.692C88.1751 155.153 88.3045 154.377 88.5957 153.708C93.0004 143.601 97.4374 133.504 101.756 123.359C102.645 121.268 103.864 120.373 106.171 120.394C116.749 120.475 127.322 120.427 137.899 120.432C140.595 120.432 141.997 121.51 141.959 123.499C141.921 125.488 140.546 126.491 137.77 126.491C128.341 126.491 118.9 126.561 109.482 126.437C107.519 126.41 106.694 127.122 105.977 128.809C101.012 140.431 95.9656 152.016 90.9301 163.616C90.8223 163.864 90.6929 164.101 90.6012 164.355C90.0621 165.81 89.1348 166.851 87.5282 166.845C85.9216 166.84 85.0482 165.799 84.4551 164.36C81.8188 157.956 79.1177 151.579 76.4544 145.186C74.4866 140.469 74.4973 140.469 69.3378 140.464C67.99 140.464 66.6422 140.512 65.2997 140.404C63.5368 140.264 62.286 138.976 62.3884 137.402C62.5016 135.714 63.4667 134.534 65.165 134.48C69.0036 134.372 72.8422 134.394 76.6808 134.453C78.3252 134.48 79.0854 135.682 79.6568 137.078C81.9374 142.614 84.2557 148.129 86.5577 153.649C86.8435 154.328 87.1508 154.986 87.4635 155.692Z" fill="white"/>
<path d="M190.918 141.644C191.01 143.674 190.373 145.67 189.122 147.272C188.174 148.463 188.147 149.164 189.058 150.469C191.592 154.118 191.683 158.064 189.343 161.848C187.095 165.481 183.672 167.19 179.407 166.7C174.895 166.204 171.892 163.632 170.479 159.325C170.156 158.298 170.019 157.221 170.075 156.145C170.068 155.769 170.138 155.396 170.28 155.049C170.422 154.701 170.633 154.386 170.901 154.123C171.169 153.859 171.488 153.653 171.838 153.517C172.188 153.381 172.562 153.318 172.938 153.331C173.656 153.269 174.371 153.487 174.934 153.939C175.496 154.391 175.862 155.042 175.957 155.757C176.054 156.215 176.086 156.689 176.189 157.153C176.399 158.188 176.977 159.111 177.817 159.752C178.657 160.392 179.7 160.706 180.754 160.636C181.808 160.566 182.8 160.115 183.547 159.369C184.294 158.622 184.744 157.63 184.815 156.576C184.889 155.494 184.553 154.424 183.874 153.579C183.194 152.734 182.221 152.176 181.149 152.016C180.682 151.973 180.217 151.904 179.758 151.811C178.21 151.342 177.369 150.296 177.499 148.663C177.617 147.137 178.528 146.237 180.027 145.967C180.625 145.891 181.217 145.777 181.801 145.628C182.747 145.35 183.566 144.75 184.116 143.932C184.667 143.114 184.914 142.129 184.815 141.148C184.75 140.183 184.367 139.266 183.725 138.543C183.083 137.819 182.219 137.329 181.268 137.149C180.317 136.97 179.334 137.111 178.472 137.551C177.61 137.991 176.919 138.704 176.507 139.579C176.334 139.941 176.253 140.34 176.102 140.717C175.38 142.577 173.984 143.412 172.372 142.927C170.646 142.42 169.854 140.889 170.296 138.916C171.428 133.822 176.895 130.221 182.157 131.122C184.633 131.541 186.877 132.832 188.484 134.762C190.091 136.692 190.954 139.133 190.918 141.644V141.644Z" fill="white"/>
<path d="M121.844 154.501C114.636 154.113 110.425 151.148 109.11 145.617C107.978 140.83 109.428 136.825 113.25 133.758C115.02 132.332 117.183 131.481 119.45 131.322C121.717 131.162 123.979 131.699 125.931 132.863C130.157 135.359 132.206 139.181 131.694 144.021C130.906 152.083 127.117 159.554 121.078 164.953C120.378 165.6 119.671 166.252 118.69 166.382C118.04 166.482 117.374 166.366 116.796 166.051C116.218 165.737 115.759 165.242 115.489 164.642C115.22 164.042 115.154 163.37 115.303 162.729C115.451 162.088 115.806 161.513 116.312 161.093C118.505 159.214 120.374 156.987 121.844 154.501V154.501ZM120.227 137.461C118.797 137.461 117.425 138.029 116.414 139.04C115.403 140.051 114.835 141.422 114.835 142.852C114.824 143.934 115.135 144.996 115.729 145.901C116.324 146.807 117.174 147.514 118.172 147.934C119.171 148.354 120.272 148.467 121.334 148.259C122.397 148.05 123.374 147.53 124.14 146.764C124.906 145.998 125.426 145.022 125.634 143.959C125.843 142.897 125.73 141.796 125.31 140.798C124.89 139.8 124.182 138.949 123.277 138.355C122.372 137.76 121.31 137.449 120.227 137.461V137.461Z" fill="white"/>
<path d="M153.114 139.455C155.534 139.455 157.966 139.423 160.387 139.455C162.446 139.488 163.729 140.658 163.751 142.415C163.772 144.172 162.505 145.471 160.473 145.488C155.488 145.541 150.502 145.541 145.517 145.488C143.474 145.488 142.245 144.199 142.283 142.399C142.32 140.598 143.533 139.488 145.647 139.455C148.143 139.423 150.634 139.455 153.114 139.455Z" fill="white"/>
<path d="M153.114 152.727C155.54 152.727 157.966 152.695 160.387 152.727C162.5 152.765 163.745 153.881 163.788 155.649C163.832 157.417 162.538 158.738 160.338 158.759C155.489 158.81 150.637 158.81 145.781 158.759C143.549 158.759 142.288 157.568 142.299 155.697C142.309 153.827 143.533 152.76 145.83 152.722C148.261 152.7 150.666 152.727 153.114 152.727Z" fill="white"/>
<path d="M42.8287 53.4804C43.7776 51.3242 44.5162 49.707 45.2278 48.0574C49.1635 38.9904 53.1315 29.9449 56.9863 20.8455C57.9028 18.6893 59.2129 17.7675 61.5851 17.7837C72.0227 17.8645 82.4603 17.8214 92.8926 17.8214C93.4979 17.7839 94.1056 17.8147 94.704 17.913C96.3484 18.3012 97.3188 19.3577 97.1948 21.0827C97.1998 21.4579 97.1277 21.83 96.9831 22.1762C96.8384 22.5224 96.6243 22.8353 96.354 23.0954C96.0837 23.3556 95.7629 23.5576 95.4114 23.6889C95.0599 23.8203 94.6852 23.8781 94.3105 23.8589C91.755 23.9236 89.1941 23.8859 86.6332 23.8859C79.1608 23.8859 71.6831 23.9236 64.2107 23.8481C62.7928 23.8481 62.0973 24.2686 61.515 25.5893C56.4041 37.5781 51.2176 49.5291 46.015 61.4963C45.5244 62.6283 45.0068 63.7226 43.7236 64.1538C42.0469 64.6929 40.5859 63.8735 39.6963 61.755C36.6017 54.3806 33.4909 47.0117 30.4772 39.6049C29.938 38.3597 29.3989 37.8368 27.9971 37.9177C25.7813 38.047 23.5547 37.977 21.3335 37.9177C18.9667 37.8853 17.662 36.7371 17.6997 34.7965C17.7374 32.8559 18.9559 31.8856 21.2688 31.8694C24.5683 31.8424 27.8731 31.9125 31.1672 31.8424C33.0542 31.8047 34.1487 32.6402 34.8495 34.3491C37.3996 40.586 40.0198 46.7691 42.8287 53.4804Z" fill="white"/>
<path d="M130.653 66.6982C124.604 66.6443 119.871 62.1216 119.704 56.801C119.639 54.731 120.669 53.3834 122.432 53.2324C124.195 53.0815 125.445 54.192 125.742 56.2566C126.152 59.0435 127.942 60.7416 130.357 60.6176C131.442 60.5462 132.465 60.0871 133.24 59.3242C134.015 58.5612 134.49 57.5452 134.578 56.4614C134.745 54.068 133.02 52.192 130.265 51.777C128.249 51.4697 127.127 50.3916 127.127 48.742C127.127 47.0925 128.281 45.9928 130.276 45.6909C132.891 45.3028 134.497 43.7072 134.589 41.4216C134.599 40.3685 134.24 39.3452 133.574 38.5291C132.908 37.7129 131.978 37.1553 130.945 36.9527C128.75 36.4999 126.777 37.7775 125.855 40.241C125.057 42.3649 123.629 43.2705 121.936 42.7153C120.151 42.1277 119.407 40.4297 120.14 38.2357C121.58 33.9232 124.631 31.3627 129.122 30.8883C133.354 30.4409 136.805 32.1605 139.048 35.8045C141.382 39.578 141.285 43.5347 138.73 47.1841C137.835 48.4617 137.926 49.1409 138.778 50.3592C141.177 53.8092 141.328 57.5449 139.317 61.2267C138.493 62.829 137.255 64.1815 135.731 65.1437C134.208 66.1058 132.455 66.6426 130.653 66.6982V66.6982Z" fill="white"/>
<path d="M73.4568 43.222C75.0909 43.1866 76.7225 43.3679 78.309 43.7611C81.1433 44.6124 83.5379 46.5277 84.9908 49.1056C86.4437 51.6834 86.842 54.7236 86.1023 57.5887C85.3626 60.4537 83.5423 62.9212 81.023 64.4738C78.5037 66.0263 75.481 66.5434 72.5888 65.9166C66.7446 64.736 62.8413 58.9088 63.6931 52.9359C64.6488 45.6012 68.0396 38.7996 73.322 33.6213C73.7906 33.1393 74.2875 32.6857 74.81 32.2629C76.4274 30.9853 78.1581 31.0284 79.3118 32.3437C80.4655 33.6591 80.3415 35.3895 78.8104 36.7856C76.6897 38.6277 74.8817 40.8013 73.4568 43.222V43.222ZM74.9772 49.3458C73.9111 49.3543 72.8716 49.6787 71.9899 50.2779C71.1082 50.877 70.4239 51.7241 70.0236 52.712C69.6233 53.7 69.5249 54.7844 69.7409 55.8282C69.9568 56.872 70.4774 57.8284 71.2369 58.5765C71.9963 59.3245 72.9605 59.8306 74.0076 60.0309C75.0547 60.2311 76.1376 60.1165 77.1196 59.7015C78.1015 59.2865 78.9384 58.5897 79.5243 57.6992C80.1103 56.8087 80.4191 55.7646 80.4116 54.6987C80.3781 53.2756 79.7923 51.9213 78.7781 50.9224C77.7638 49.9234 76.4008 49.358 74.9772 49.3458V49.3458Z" fill="white"/>
<path d="M102.743 37.9608C104.134 38.1926 105.061 39.1413 105.179 40.8717C105.282 42.3326 104.586 44.1708 105.487 45.1842C106.387 46.1977 108.29 45.443 109.746 45.5777C111.698 45.761 112.846 46.8499 112.84 48.5911C112.835 50.3323 111.681 51.4158 109.724 51.6206C108.279 51.7716 106.414 50.9737 105.487 52.0303C104.559 53.0869 105.287 54.8658 105.185 56.3428C105.061 58.1379 103.977 59.3562 102.387 59.4586C100.699 59.5718 99.3837 58.3805 99.1519 56.5477C98.9417 54.9682 99.869 52.8659 98.7206 51.9387C97.761 51.1624 95.7608 51.7392 94.2296 51.5937C92.4074 51.4212 91.3453 50.2245 91.3614 48.5641C91.3776 46.9038 92.4775 45.7988 94.2997 45.6101C95.8255 45.4538 97.7663 46.23 98.7799 45.2543C99.7935 44.2786 98.9632 42.311 99.1627 40.7963C99.3945 38.9203 100.705 37.8098 102.743 37.9608Z" fill="white"/>
</svg>
