<svg width="207" height="207" viewBox="0 0 207 207" fill="none" xmlns="http://www.w3.org/2000/svg">
<g clip-path="url(#clip0_96_2)">
<path d="M94.6778 207C90.241 206.278 85.7611 205.836 81.3621 204.844C55.1086 198.914 34.231 184.898 18.6214 163.077C8.10549 148.512 1.80345 131.338 0.404823 113.435C-1.99707 84.2932 6.29891 58.5045 25.0337 36.0741C26.7987 33.9609 28.6608 33.5135 30.2261 34.8019C31.7914 36.0902 31.759 38.2034 29.9508 40.3165C15.7054 56.9383 7.47673 77.8653 6.59037 99.7266C5.85091 116.438 8.95448 132.378 16.6783 147.164C31.4675 175.503 54.5958 193.362 86.0849 198.995C119.447 204.962 148.475 195.372 172.791 171.702C174.475 170.058 175.991 168.247 177.562 166.489C179.408 164.419 181.194 164.058 182.765 165.476C184.336 166.894 184.228 168.71 182.555 170.656C172.291 182.783 159.361 192.376 144.772 198.688C134.711 203.104 123.99 205.836 113.04 206.774C112.71 206.83 112.385 206.913 112.069 207.022L94.6778 207Z" fill="white"/>
<path d="M112.052 0C117.45 0.733125 122.847 1.44469 128.126 2.69531C167.755 12.172 199.292 46.0467 205.802 86.25C206.271 89.1663 206.601 92.1042 207 95.0313V112.012C206.223 117.941 205.419 123.871 203.902 129.677C201.372 139.331 197.47 148.573 192.313 157.121C191.967 157.775 191.529 158.378 191.013 158.91C189.787 160.037 188.314 160.253 186.959 159.261C185.604 158.269 185.108 156.91 185.88 155.352C186.651 153.795 187.542 152.425 188.362 150.954C195.693 137.93 199.848 123.365 200.491 108.438C201.662 82.5628 193.857 59.685 176.99 40.1009C161.386 21.9398 141.566 10.943 117.849 7.4175C94.0085 3.87047 71.8409 8.75977 51.4329 21.5625C48.0096 23.7169 44.7448 26.1129 41.6634 28.732C41.3557 28.9962 41.0589 29.2711 40.735 29.5083C38.9592 30.8074 37.0755 30.6511 35.8773 29.1202C34.679 27.5892 34.9759 25.8858 36.6059 24.4896C41.3591 20.4093 46.4838 16.7818 51.9133 13.6545C64.8229 6.14539 79.2301 1.56814 94.111 0.247969C94.441 0.191388 94.7659 0.108466 95.0826 0L112.052 0Z" fill="white"/>
<path d="M53.3814 48.3809C59.2471 48.4015 65.0937 49.0502 70.8208 50.3161C72.494 50.6827 73.2875 50.3161 73.8704 48.5857C76.7527 39.8906 80.477 31.6268 86.5546 24.6405C90.3328 20.2741 94.8127 16.9104 100.707 15.9347C106.882 14.9051 112.101 17.0128 116.721 20.9372C117.973 22.0153 119.058 22.5059 120.85 22.2202C125.665 21.4547 129.675 23.0934 132.218 27.3898C134.76 31.6861 134.436 35.8908 131.516 39.8798C131.165 40.2824 130.94 40.7789 130.869 41.3078C130.798 41.8367 130.884 42.3748 131.116 42.8555C131.945 44.6987 132.635 46.6016 133.178 48.548C133.664 50.5102 134.668 50.6665 136.417 50.2891C142.726 48.8678 149.189 48.2448 155.653 48.4348C159.499 48.5231 163.313 49.1417 166.988 50.273C179.219 54.1973 184.46 63.9436 181.06 76.3528C178.803 84.5843 174.275 91.549 169.039 98.1255C167.96 99.4948 166.805 100.821 165.628 102.125C164.829 103.009 164.689 103.743 165.547 104.729C167.604 107.133 169.557 109.624 171.533 112.098C171.744 112.394 172.036 112.623 172.374 112.759C172.711 112.895 173.081 112.931 173.438 112.864C178.679 112.368 182.922 114.686 185.048 119.117C187.175 123.548 186.311 128.033 182.641 131.892C182.299 132.209 182.041 132.605 181.89 133.045C181.74 133.485 181.701 133.956 181.777 134.415C183.116 145.234 177.956 153.18 167.366 156.598C161.181 158.592 154.811 158.916 148.394 158.43C144.163 158.152 139.962 157.539 135.828 156.598C134.42 156.263 133.804 156.711 133.362 158.085C131.1 165.093 128.169 171.815 123.992 177.928C121.072 182.198 117.687 186.014 113.143 188.613C106.52 192.386 99.908 192.23 93.4418 188.262C87.1969 184.435 83.2297 178.591 79.7915 172.338C77.3555 167.831 75.3548 163.101 73.8164 158.215C73.3576 156.792 72.7639 156.253 71.2418 156.598C67.7066 157.44 64.1061 157.981 60.4792 158.215C60.0445 158.237 59.6248 158.381 59.2686 158.631C58.9124 158.881 58.6342 159.226 58.4659 159.627C55.7671 164.419 51.7082 166.77 47.1905 166.193C42.1438 165.546 38.711 162.323 37.2969 156.867C37.2486 156.504 37.1135 156.158 36.9031 155.857C36.6927 155.557 36.413 155.312 36.0878 155.142C26.4047 150.49 22.8693 140.809 26.4155 129.375C28.7688 121.785 33.0436 115.273 37.9176 109.112C39.0457 107.689 40.1899 106.265 41.4421 104.955C42.4569 103.877 42.3651 103.106 41.4421 102.05C37.2978 97.5271 33.6766 92.5526 30.6471 87.2203C27.5651 81.7003 25.1902 75.9 25.1363 69.469C25.0715 61.5663 28.7148 55.8038 35.6452 52.1597C41.291 49.1463 47.4982 48.4348 53.3814 48.3809ZM72.1486 103.446C72.2403 108.837 72.4617 114.227 72.9042 119.575C72.9112 120.071 73.0416 120.558 73.2838 120.992C73.5259 121.426 73.8721 121.793 74.2914 122.06C83.1203 128.116 92.4068 133.477 102.067 138.097C102.506 138.341 102.998 138.473 103.499 138.481C104.001 138.49 104.497 138.375 104.944 138.146C114.666 133.488 124.011 128.081 132.892 121.974C133.578 121.499 134.134 121.014 134.177 120.071C134.236 118.658 134.457 117.257 134.533 115.845C135.079 106.368 134.969 96.865 134.204 87.4036C134.199 86.9071 134.071 86.4197 133.829 85.9856C133.588 85.5516 133.242 85.1847 132.822 84.9185C123.991 78.8668 114.704 73.5051 105.046 68.8814C104.607 68.6389 104.116 68.5076 103.614 68.4992C103.112 68.4907 102.616 68.6053 102.17 68.8329C92.4464 73.4769 83.1018 78.8732 74.2212 84.9724C73.8273 85.2211 73.5012 85.5636 73.2723 85.969C73.0434 86.3745 72.9188 86.8304 72.9096 87.2958C72.467 92.681 72.2673 98.0609 72.1486 103.446ZM152.874 55.0437C147.859 54.8981 142.953 55.7121 138.041 56.5315C136.276 56.8226 135.834 57.4371 136.303 59.2268C138.013 65.7393 139.207 72.3758 139.877 79.0751C139.927 80.1313 140.232 81.1598 140.765 82.0737C141.297 82.9876 142.042 83.76 142.937 84.3255C147.46 87.5006 151.573 91.1716 155.756 94.8049C157.143 96.0124 158.207 98.3843 159.977 98.1633C161.747 97.9423 162.638 95.6782 163.798 94.212C168.926 87.7432 173.514 80.9456 175.166 72.6225C176.596 65.3398 173.633 59.8845 166.745 57.1298C162.287 55.3402 157.607 54.8981 152.874 55.0437ZM31.6996 69.8086C31.6773 71.462 31.9085 73.109 32.3851 74.6925C34.8464 83.4954 40.1737 90.5679 45.9491 97.3924C46.9746 98.6107 47.6061 98.4975 48.6478 97.4517C53.8252 92.3424 59.3963 87.6471 65.3099 83.4091C65.8081 83.0688 66.2221 82.6196 66.5204 82.0956C66.8188 81.5716 66.9936 80.9866 67.0318 80.385C67.7624 73.1523 69.0253 65.9832 70.81 58.9357C71.1824 57.4371 70.81 56.9304 69.3365 56.6177C63.0728 55.3127 56.6701 54.7966 50.2779 55.0814C46.5688 55.1829 42.9142 55.9993 39.5152 57.4856C34.3444 59.8359 31.5161 63.6848 31.6996 69.8086ZM103.967 184.726C105.381 184.812 107.238 184.3 109.019 183.411C112.101 181.869 114.514 179.535 116.624 176.888C121.611 170.64 124.656 163.411 127.257 155.918C127.657 154.765 127.052 154.517 126.178 154.274C118.863 152.189 111.706 149.588 104.76 146.49C104.365 146.309 103.934 146.218 103.499 146.223C103.064 146.229 102.636 146.331 102.245 146.523C95.2973 149.615 88.1384 152.211 80.8224 154.29C79.6835 154.603 79.4946 155.175 79.8886 156.188C80.7144 158.344 81.4377 160.5 82.3229 162.603C85.1512 169.357 88.557 175.756 94.1273 180.721C96.772 183.06 99.7353 184.699 103.967 184.726ZM31.6834 137.828C31.5107 142.172 33.3621 145.87 37.4264 148.452C38.3278 149.024 38.9431 148.991 39.6502 148.151C40.8439 146.639 42.4127 145.465 44.2009 144.746C45.9891 144.027 47.9345 143.787 49.8441 144.051C51.7536 144.315 53.5609 145.073 55.0866 146.249C56.6123 147.426 57.8033 148.981 58.5415 150.76C58.5837 150.937 58.661 151.104 58.7687 151.251C58.8764 151.398 59.0124 151.522 59.1687 151.616C59.325 151.71 59.4985 151.772 59.6791 151.798C59.8596 151.824 60.0435 151.814 60.2201 151.768C63.2859 151.369 66.3409 150.964 69.3959 150.425C70.945 150.15 71.1932 149.563 70.8262 148.102C69.0472 141.062 67.7844 133.903 67.0479 126.68C67.0311 126.11 66.8854 125.552 66.6218 125.047C66.3581 124.542 65.9835 124.103 65.5258 123.763C59.5103 119.445 53.8435 114.661 48.5777 109.457C47.5791 108.459 46.9584 108.459 46.0084 109.543C41.8847 114.281 38.1335 119.246 35.2782 124.885C33.2703 128.798 31.6942 132.874 31.6834 137.806V137.828ZM103.632 60.9141C104.269 60.6661 104.965 60.4181 105.635 60.127C111.249 57.6862 116.987 55.5396 122.826 53.696C127.792 52.1435 127.727 52.1866 125.956 47.3081C125.195 45.2112 124.337 43.6317 121.73 44.1492C121.192 44.1799 120.654 44.0991 120.149 43.912C113.132 42.117 109.677 34.8019 112.786 28.1768C113.191 27.3251 113.569 26.6459 112.614 25.902C110.077 23.929 107.416 22.3819 104.059 22.2633C99.7407 22.1123 96.405 24.0745 93.4742 26.9046C86.5276 33.6105 82.9382 42.2248 79.84 51.1139C79.3597 52.4939 80.3798 52.5478 81.1786 52.7742C88.2853 54.8411 95.2457 57.3803 102.013 60.375C102.488 60.5637 103.006 60.7092 103.632 60.9141ZM152.528 151.967C159.318 151.994 163.701 151.261 167.539 149.531C173.071 147.029 175.597 143.008 175.468 137.132C175.435 135.736 175.004 135.035 173.584 134.857C171.689 134.616 169.888 133.892 168.355 132.754C166.822 131.616 165.608 130.103 164.831 128.36C164.054 126.617 163.739 124.704 163.918 122.805C164.096 120.905 164.761 119.084 165.849 117.516C166.118 117.218 166.264 116.83 166.256 116.429C166.248 116.028 166.087 115.646 165.806 115.359C164.187 113.392 162.568 111.403 160.948 109.43C160.285 108.616 159.664 108.395 158.789 109.257C153.345 114.573 147.518 119.482 141.355 123.947C140.977 124.229 140.667 124.591 140.447 125.008C140.226 125.425 140.102 125.885 140.082 126.356C139.326 133.719 138.048 141.018 136.255 148.199C135.909 149.628 136.32 150.118 137.691 150.382C142.732 151.331 147.779 152.043 152.507 151.973L152.528 151.967ZM65.9846 91.0531C61.2967 94.626 56.8352 98.486 52.6258 102.611C51.7784 103.446 52.248 104.023 52.8957 104.616C54.9197 106.486 56.8844 108.422 58.9841 110.201C61.0837 111.979 63.1887 114.071 66.0008 115.677C65.7741 107.457 65.7687 99.5541 65.963 91.0692L65.9846 91.0531ZM141.307 115.796C145.966 112.227 150.404 108.378 154.596 104.271C155.497 103.376 154.736 102.821 154.153 102.287C151.773 100.131 149.398 97.9369 146.974 95.8184C145.213 94.1821 143.317 92.6963 141.307 91.3765V115.796ZM95.2715 64.8762C95.0101 64.651 94.7282 64.4506 94.4295 64.2778C89.3825 62.2152 84.2275 60.4265 78.9872 58.9195C77.7674 58.5584 77.4436 59.2106 77.1953 60.1648C75.9269 65.1241 75.0363 70.1536 74.2374 75.21C74.1619 75.6898 73.8812 76.3636 74.5019 76.6709C74.9769 76.9027 75.3655 76.4121 75.7487 76.1641C79.4406 73.8138 83.1541 71.5013 87.0025 69.4097C89.7013 67.9219 92.3893 66.461 95.2715 64.8762V64.8762ZM94.9963 142.199C94.667 141.509 93.9545 141.375 93.377 141.073C87.4397 137.925 81.5619 134.604 75.9107 130.944C75.4789 130.663 75.0363 130.07 74.5019 130.34C73.8272 130.685 74.1673 131.445 74.2536 131.984C75.0129 136.911 75.9682 141.799 77.1197 146.647C77.4759 148.161 78.1668 148.334 79.5648 147.919C84.3416 146.496 89.0536 144.884 93.6793 143.035C94.165 142.852 94.748 142.787 94.9963 142.199ZM132.914 131.418C132.995 130.34 132.736 129.925 131.802 130.529C125.638 134.507 119.28 138.146 112.776 141.542C111.696 142.081 112.139 142.517 112.932 142.83C117.92 144.84 123.012 146.584 128.186 148.054C128.963 148.275 129.492 148.107 129.724 147.266C131.072 142.052 132.137 136.769 132.914 131.44V131.418ZM111.54 64.7306C114.443 66.2993 116.889 67.5391 119.253 68.9138C123.371 71.318 127.441 73.8138 131.543 76.2612C132.131 76.6116 133.092 77.3393 132.881 75.8084C132.178 70.423 131.13 65.088 129.745 59.8359C129.535 59.0435 129.114 58.6931 128.283 58.9249C122.584 60.5133 116.992 62.4596 111.54 64.7522V64.7306ZM48.324 150.506C47.7178 150.486 47.1141 150.592 46.5511 150.817C45.988 151.042 45.478 151.381 45.0532 151.814C44.6284 152.246 44.2983 152.762 44.0836 153.328C43.869 153.895 43.7745 154.5 43.8063 155.104C43.7803 155.693 43.8755 156.281 44.086 156.832C44.2965 157.383 44.6178 157.884 45.03 158.306C45.4423 158.728 45.9367 159.061 46.4828 159.284C47.029 159.508 47.6152 159.617 48.2052 159.606C48.8092 159.625 49.411 159.524 49.9755 159.308C50.5399 159.093 51.0555 158.767 51.4923 158.349C51.9291 157.932 52.2781 157.432 52.5191 156.879C52.7601 156.325 52.8881 155.73 52.8957 155.126C52.9014 153.908 52.4233 152.738 51.5663 151.872C50.7092 151.006 49.5432 150.515 48.324 150.506ZM174.917 119.343C174.31 119.335 173.708 119.449 173.147 119.68C172.585 119.911 172.077 120.254 171.652 120.686C171.227 121.119 170.895 121.634 170.675 122.199C170.455 122.764 170.352 123.368 170.373 123.974C170.412 125.194 170.934 126.349 171.824 127.185C172.715 128.022 173.9 128.472 175.122 128.437C175.711 128.43 176.291 128.305 176.831 128.07C177.37 127.835 177.857 127.495 178.262 127.07C178.668 126.644 178.985 126.142 179.193 125.593C179.402 125.044 179.499 124.458 179.478 123.871C179.509 123.266 179.413 122.661 179.194 122.096C178.976 121.53 178.64 121.017 178.21 120.59C177.78 120.163 177.264 119.831 176.697 119.616C176.129 119.401 175.523 119.308 174.917 119.343ZM127.284 33.2116C127.294 31.9919 126.831 30.8157 125.992 29.9295C125.153 29.0432 124.003 28.5156 122.783 28.4571C121.56 28.4685 120.392 28.9623 119.532 29.8308C118.673 30.6992 118.192 31.8719 118.195 33.093C118.187 33.6891 118.297 34.2809 118.518 34.8345C118.739 35.3882 119.067 35.8929 119.484 36.3199C119.9 36.7469 120.397 37.0878 120.945 37.3231C121.494 37.5583 122.083 37.6835 122.68 37.6912C123.277 37.699 123.869 37.5893 124.424 37.3684C124.978 37.1475 125.484 36.8197 125.911 36.4038C126.339 35.9878 126.68 35.4918 126.916 34.9441C127.151 34.3964 127.276 33.8077 127.284 33.2116V33.2116Z" fill="white"/>
<path d="M101.376 100.179H108.344C109.421 100.127 110.499 100.232 111.545 100.492C114.141 101.274 115.242 103.473 114.244 106.012C114.023 106.584 113.733 107.127 113.38 107.629C108.965 113.828 104.539 120.015 100.102 126.189C98.5748 128.308 96.7397 128.744 95.1258 127.531C93.5119 126.319 93.377 124.491 94.8829 122.362C98.1214 117.747 101.452 113.16 104.728 108.551C105.03 108.131 105.613 107.71 105.381 107.166C105.149 106.621 104.426 106.853 103.924 106.848C101.84 106.815 99.7515 106.88 97.668 106.815C93.0154 106.67 91.191 103.392 93.8304 99.5756C98.2348 93.123 102.844 86.7891 107.411 80.482C108.749 78.633 110.573 78.3258 112.133 79.5279C113.693 80.73 113.85 82.5412 112.56 84.3795C109.386 88.8968 106.148 93.371 102.947 97.856C102.499 98.5029 102.067 99.1875 101.376 100.179Z" fill="white"/>
</g>
<defs>
<clipPath id="clip0_96_2">
<rect width="207" height="207" fill="white"/>
</clipPath>
</defs>
</svg>
