<svg width="234" height="234" viewBox="0 0 234 234" fill="none" xmlns="http://www.w3.org/2000/svg">
<path d="M64.9069 0C66.6012 1.03594 67.7713 2.4375 67.0644 4.50938C66.3574 6.58125 64.5839 6.87984 62.6092 6.87375C46.0077 6.84531 29.4041 6.84531 12.7985 6.87375C8.20935 6.87375 6.85636 8.25094 6.85636 12.9066V83.9475C6.85636 88.5117 8.27639 89.9133 12.89 89.9194C17.1561 89.9194 21.4223 89.9194 25.6885 89.9194C30.814 89.9194 32.9288 92.04 32.941 97.0978C32.941 101.668 32.941 106.238 32.941 110.815C34.0319 111.089 34.5073 110.205 35.1229 109.767C42.095 104.599 49.1403 99.5292 55.9479 94.1424C59.5586 91.218 64.1024 89.6928 68.7465 89.8463C97.4639 89.9864 126.181 89.9133 154.899 89.9133H184.153C188.419 89.9133 189.973 88.402 189.973 84.1669C189.973 60.3281 189.973 36.4894 189.973 12.6506C189.973 8.23266 188.523 6.84938 183.994 6.84938H82.5506C82.0204 6.84938 81.484 6.81891 80.9538 6.84938C78.9792 6.97734 77.2057 6.58735 76.4865 4.50938C75.7674 2.43141 76.9619 1.06641 78.6196 0H187.864C188.025 0.151327 188.206 0.280442 188.401 0.383906C194.19 2.4375 196.854 6.03891 196.854 12.218C196.854 36.2761 196.854 60.3342 196.854 84.3924C196.854 92.2289 192.185 96.7749 184.256 96.7749C145.95 96.7749 107.65 96.7546 69.3559 96.7139C65.8689 96.5812 62.4506 97.7082 59.7265 99.8888C51.8036 106.074 43.6796 111.973 35.6287 117.981C35.0192 118.432 34.4098 118.895 33.7638 119.297C29.7414 121.808 26.2187 119.974 26.1212 115.196C26.0054 109.712 26.0237 104.228 26.1212 98.7431C26.1212 97.11 25.6276 96.6774 24.0613 96.7322C20.7885 96.8419 17.5035 96.5921 14.2369 96.7992C7.22203 97.2502 2.29155 94.6238 0 87.75V9.14063C0.571673 6.94111 1.72046 4.93415 3.32763 3.32719C4.93479 1.72024 6.94201 0.571598 9.14182 0L64.9069 0Z" fill="black"/>
<path d="M202.034 234C192.283 226.767 182.471 219.558 172.744 212.264C171.005 210.91 168.853 210.196 166.649 210.24C134.044 210.283 101.438 210.149 68.8319 210.362C61.5184 210.411 55.7652 205.676 55.8383 197.322C56.0374 173.715 56.0374 150.103 55.8383 126.488C55.7774 118.67 61.0065 113.52 68.6917 113.563C103.351 113.758 138.017 113.648 172.677 113.648C173.134 113.648 173.591 113.648 174.048 113.648C176.565 113.715 178.058 114.983 178.052 117.03C178.046 119.078 176.547 120.364 174.036 120.486C173.353 120.522 172.665 120.486 171.982 120.486H69.1366C63.9867 120.486 62.7617 121.704 62.7617 126.768C62.7617 150.225 62.7617 173.684 62.7617 197.145C62.7617 202.111 64.0355 203.397 68.9538 203.397C101.255 203.397 133.556 203.44 165.857 203.348C170.049 203.222 174.151 204.582 177.437 207.187C184.525 212.715 191.801 217.986 199.005 223.36C199.542 223.763 200.108 224.128 200.663 224.512C201.37 224.018 201.065 223.354 201.071 222.806C201.102 218.699 201.071 214.585 201.071 210.472C201.071 205.628 203.326 203.409 208.232 203.397C212.803 203.397 217.374 203.397 221.945 203.397C225.517 203.397 227.132 201.788 227.132 198.236C227.132 174.015 227.132 149.793 227.132 125.568C227.132 122.131 225.535 120.516 222.097 120.504C212.273 120.473 202.443 120.504 192.618 120.504C191.856 120.527 191.092 120.505 190.333 120.437C188.334 120.181 187.005 118.767 187.023 117C187.023 115.129 188.486 113.679 190.631 113.673C201.602 113.673 212.572 113.569 223.542 113.734C228.064 113.807 231.16 116.427 233.098 120.437C233.421 121.107 233.348 121.948 234 122.466V201.094C231.507 208.766 226.388 210.667 220.19 210.307C216.777 210.106 213.352 210.35 209.933 210.234C208.342 210.18 207.861 210.643 207.891 212.251C207.989 217.492 207.891 222.733 207.946 227.973C207.976 230.612 207.215 232.739 204.746 234H202.034Z" fill="black"/>
<path d="M98.8719 176C99.6764 175.39 99.8226 174.513 100.152 173.757C105.131 162.331 110.147 150.918 115.029 139.449C116.034 137.085 117.411 136.073 120.02 136.098C131.977 136.189 143.929 136.134 155.886 136.14C158.934 136.14 160.518 137.359 160.476 139.608C160.433 141.856 158.879 142.99 155.74 142.99C145.081 142.99 134.409 143.069 123.762 142.929C121.544 142.898 120.611 143.703 119.801 145.61C114.187 158.748 108.483 171.844 102.791 184.957C102.669 185.238 102.523 185.506 102.419 185.792C101.809 187.438 100.761 188.614 98.945 188.608C97.1288 188.602 96.1415 187.425 95.4711 185.798C92.4909 178.559 89.4375 171.35 86.4268 164.123C84.2023 158.791 84.2145 158.791 78.382 158.785C76.8584 158.785 75.3348 158.84 73.8172 158.718C71.8243 158.559 70.4104 157.103 70.5262 155.324C70.6541 153.416 71.7451 152.082 73.6648 152.021C78.0042 151.899 82.3435 151.923 86.6828 151.99C88.5416 152.021 89.401 153.38 90.047 154.958C92.625 161.216 95.2456 167.45 97.848 173.69C98.171 174.458 98.5184 175.201 98.8719 176Z" fill="black"/>
<path d="M215.82 160.119C215.924 162.414 215.204 164.671 213.79 166.481C212.718 167.828 212.687 168.62 213.717 170.095C216.582 174.22 216.685 178.681 214.04 182.959C211.499 187.066 207.629 188.998 202.808 188.443C197.707 187.883 194.312 184.976 192.715 180.107C192.351 178.945 192.196 177.728 192.258 176.512C192.251 176.087 192.33 175.665 192.49 175.272C192.651 174.879 192.89 174.523 193.193 174.225C193.495 173.928 193.856 173.695 194.251 173.541C194.647 173.387 195.07 173.316 195.495 173.331C196.307 173.261 197.115 173.507 197.751 174.018C198.386 174.528 198.801 175.265 198.908 176.073C199.017 176.591 199.054 177.127 199.17 177.651C199.407 178.821 200.061 179.865 201.01 180.589C201.96 181.313 203.139 181.668 204.33 181.589C205.522 181.509 206.643 181 207.488 180.156C208.332 179.312 208.841 178.19 208.921 176.999C209.005 175.776 208.625 174.567 207.857 173.611C207.089 172.656 205.989 172.025 204.777 171.844C204.249 171.795 203.724 171.718 203.204 171.612C201.455 171.082 200.504 169.9 200.651 168.053C200.785 166.329 201.815 165.311 203.509 165.007C204.185 164.92 204.854 164.792 205.514 164.623C206.583 164.308 207.509 163.63 208.132 162.706C208.754 161.781 209.033 160.668 208.921 159.559C208.848 158.468 208.414 157.432 207.689 156.613C206.963 155.795 205.986 155.241 204.911 155.038C203.837 154.835 202.725 154.995 201.751 155.492C200.777 155.989 199.995 156.796 199.529 157.785C199.334 158.194 199.243 158.645 199.072 159.071C198.255 161.174 196.677 162.118 194.855 161.57C192.904 160.997 192.009 159.266 192.508 157.036C193.788 151.277 199.968 147.207 205.916 148.224C208.715 148.698 211.253 150.158 213.069 152.34C214.885 154.522 215.861 157.281 215.82 160.119V160.119Z" fill="black"/>
<path d="M137.737 174.653C129.588 174.214 124.828 170.863 123.341 164.61C122.061 159.199 123.701 154.672 128.022 151.204C130.022 149.592 132.468 148.631 135.03 148.45C137.593 148.27 140.15 148.878 142.356 150.193C147.134 153.014 149.45 157.335 148.871 162.807C147.981 171.92 143.698 180.366 136.871 186.469C136.079 187.2 135.281 187.937 134.171 188.084C133.436 188.197 132.684 188.065 132.031 187.71C131.377 187.355 130.858 186.795 130.553 186.117C130.248 185.439 130.174 184.679 130.342 183.954C130.51 183.23 130.911 182.58 131.484 182.106C133.963 179.981 136.075 177.463 137.737 174.653V174.653ZM135.908 155.391C134.292 155.391 132.742 156.033 131.599 157.175C130.456 158.318 129.814 159.868 129.814 161.484C129.8 162.708 130.152 163.909 130.824 164.932C131.496 165.955 132.458 166.755 133.586 167.23C134.715 167.705 135.959 167.832 137.161 167.597C138.362 167.361 139.466 166.773 140.332 165.907C141.198 165.042 141.786 163.938 142.021 162.737C142.257 161.535 142.129 160.291 141.655 159.163C141.18 158.034 140.38 157.073 139.356 156.401C138.333 155.729 137.133 155.377 135.908 155.391V155.391Z" fill="black"/>
<path d="M173.085 157.645C175.821 157.645 178.57 157.609 181.306 157.645C183.635 157.682 185.085 159.004 185.109 160.991C185.134 162.977 183.702 164.446 181.404 164.464C175.769 164.525 170.133 164.525 164.498 164.464C162.188 164.464 160.798 163.008 160.841 160.973C160.884 158.937 162.255 157.682 164.644 157.645C167.466 157.609 170.281 157.645 173.085 157.645Z" fill="black"/>
<path d="M173.085 172.648C175.828 172.648 178.57 172.612 181.307 172.648C183.696 172.691 185.104 173.952 185.152 175.951C185.201 177.95 183.738 179.443 181.252 179.467C175.771 179.524 170.286 179.524 164.797 179.467C162.273 179.467 160.847 178.12 160.859 176.006C160.872 173.891 162.255 172.685 164.851 172.642C167.6 172.618 170.318 172.648 173.085 172.648Z" fill="black"/>
<path d="M48.4151 60.4561C49.4878 58.0186 50.3227 56.1905 51.1272 54.3258C55.5762 44.0761 60.0618 33.8508 64.4194 23.5645C65.4555 21.127 66.9365 20.085 69.6181 20.1033C81.4171 20.1947 93.2161 20.1459 105.009 20.1459C105.693 20.1036 106.38 20.1383 107.057 20.2495C108.916 20.6883 110.013 21.8827 109.873 23.8327C109.878 24.2567 109.797 24.6774 109.633 25.0688C109.47 25.4601 109.228 25.8138 108.922 26.1079C108.616 26.402 108.254 26.6304 107.856 26.7788C107.459 26.9272 107.036 26.9926 106.612 26.9709C103.723 27.0441 100.828 27.0014 97.9333 27.0014C89.4863 27.0014 81.0331 27.0441 72.5861 26.9588C70.9832 26.9588 70.197 27.4341 69.5388 28.927C63.7612 42.4795 57.8982 55.9894 52.017 69.5175C51.4624 70.7972 50.8773 72.0342 49.4268 72.5217C47.5314 73.1311 45.8798 72.2049 44.8742 69.81C41.3759 61.4738 37.8594 53.1436 34.4525 44.7708C33.8431 43.3631 33.2336 42.772 31.649 42.8634C29.1442 43.0097 26.6271 42.9305 24.1162 42.8634C21.4407 42.8269 19.9658 41.5289 20.0085 39.3352C20.0511 37.1414 21.4285 36.0445 24.0431 36.0263C27.7729 35.9958 31.5089 36.075 35.2326 35.9958C37.3657 35.9531 38.6029 36.8977 39.3952 38.8294C42.2779 45.8799 45.2399 52.8694 48.4151 60.4561Z" fill="black"/>
<path d="M147.695 75.398C140.857 75.337 135.506 70.2244 135.317 64.2098C135.244 61.8698 136.408 60.3464 138.401 60.1758C140.394 60.0052 141.808 61.2605 142.143 63.5944C142.606 66.7448 144.63 68.6644 147.36 68.5242C148.587 68.4435 149.744 67.9246 150.62 67.0621C151.496 66.1997 152.032 65.0511 152.132 63.8259C152.321 61.1203 150.371 58.9997 147.256 58.5305C144.977 58.1831 143.709 56.9644 143.709 55.0997C143.709 53.235 145.014 51.9919 147.269 51.6506C150.224 51.2119 152.041 49.4081 152.144 46.8244C152.155 45.6339 151.749 44.4772 150.997 43.5546C150.244 42.632 149.193 42.0016 148.024 41.7727C145.544 41.2608 143.313 42.705 142.271 45.4898C141.369 47.8908 139.754 48.9145 137.84 48.2869C135.823 47.6227 134.982 45.7031 135.811 43.223C137.438 38.348 140.888 35.4534 145.964 34.9172C150.749 34.4114 154.649 36.3553 157.184 40.4747C159.823 44.7403 159.714 49.2131 156.825 53.3386C155.813 54.7828 155.917 55.5506 156.88 56.9278C159.592 60.8278 159.762 65.0508 157.489 69.2128C156.558 71.0241 155.158 72.553 153.436 73.6407C151.713 74.7283 149.731 75.3351 147.695 75.398V75.398Z" fill="black"/>
<path d="M83.0381 48.8597C84.8854 48.8196 86.7298 49.0245 88.5232 49.4691C91.7272 50.4314 94.4341 52.5965 96.0765 55.5106C97.7189 58.4247 98.1692 61.8614 97.333 65.1002C96.4968 68.339 94.4391 71.1283 91.5911 72.8834C88.7432 74.6385 85.3264 75.223 82.0569 74.5144C75.4504 73.1799 71.038 66.5925 72.0009 59.8406C73.0812 51.5492 76.9143 43.8604 82.8858 38.0067C83.4154 37.4619 83.9771 36.9491 84.5678 36.4711C86.3962 35.0269 88.3526 35.0756 89.6568 36.5625C90.961 38.0494 90.8208 40.0055 89.09 41.5837C86.6926 43.666 84.6488 46.1232 83.0381 48.8597V48.8597ZM84.7568 55.7822C83.5517 55.7919 82.3765 56.1585 81.3799 56.8359C80.3832 57.5132 79.6097 58.4707 79.1571 59.5875C78.7046 60.7043 78.5934 61.9302 78.8375 63.1101C79.0816 64.2901 79.6701 65.3712 80.5286 66.2169C81.3871 67.0625 82.4771 67.6346 83.6607 67.861C84.8444 68.0874 86.0686 67.9578 87.1786 67.4886C88.2886 67.0195 89.2346 66.2318 89.897 65.2252C90.5594 64.2186 90.9085 63.0382 90.9001 61.8333C90.8622 60.2246 90.1999 58.6937 89.0534 57.5644C87.9069 56.4351 86.3661 55.796 84.7568 55.7822V55.7822Z" fill="black"/>
<path d="M116.144 42.9122C117.716 43.1742 118.764 44.2467 118.898 46.2028C119.014 47.8542 118.228 49.9322 119.246 51.0778C120.264 52.2234 122.415 51.3703 124.06 51.5227C126.267 51.7299 127.565 52.9608 127.559 54.9291C127.553 56.8973 126.248 58.1222 124.036 58.3538C122.403 58.5244 120.294 57.6225 119.246 58.8169C118.197 60.0113 119.02 62.0222 118.904 63.6919C118.764 65.7211 117.539 67.0983 115.741 67.2141C113.834 67.342 112.347 65.9953 112.085 63.9234C111.847 62.138 112.895 59.7614 111.597 58.7133C110.512 57.8358 108.251 58.4878 106.52 58.3233C104.46 58.1283 103.26 56.7755 103.278 54.8986C103.296 53.0217 104.54 51.7725 106.6 51.5592C108.324 51.3825 110.518 52.26 111.664 51.157C112.81 50.0541 111.871 47.8298 112.097 46.1175C112.359 43.9969 113.84 42.7416 116.144 42.9122Z" fill="black"/>
</svg>
