<svg width="234" height="234" viewBox="0 0 234 234" fill="none" xmlns="http://www.w3.org/2000/svg">
<g clip-path="url(#clip0_213_93)">
<path d="M107.027 234C102.012 233.183 96.9473 232.684 91.9746 231.563C62.2967 224.859 38.6959 209.016 21.0503 184.348C9.16273 167.883 2.03868 148.469 0.457626 128.231C-2.25756 95.288 7.1205 66.1355 28.2989 40.7794C30.2941 38.3906 32.3992 37.8848 34.1686 39.3412C35.9381 40.7976 35.9014 43.1864 33.8574 45.5752C17.7539 64.365 8.45196 88.0216 7.44999 112.734C6.61407 131.625 10.1225 149.644 18.8538 166.359C35.572 198.394 61.717 218.583 97.3134 224.951C135.027 231.697 167.841 220.856 195.328 194.098C197.232 192.24 198.947 190.192 200.722 188.205C202.809 185.865 204.829 185.457 206.604 187.06C208.38 188.663 208.258 190.716 206.366 192.916C194.764 206.624 180.147 217.469 163.655 224.603C152.282 229.595 140.163 232.684 127.784 233.744C127.411 233.808 127.044 233.902 126.686 234.024L107.027 234Z" fill="black"/>
<path d="M126.668 0C132.769 0.82875 138.871 1.63312 144.838 3.04687C189.636 13.7597 225.287 52.0528 232.645 97.5C233.176 100.797 233.548 104.118 234 107.427V126.622C233.121 133.325 232.212 140.028 230.498 146.591C227.638 157.505 223.227 167.952 217.398 177.615C217.006 178.355 216.511 179.036 215.927 179.638C214.542 180.911 212.876 181.155 211.345 180.034C209.813 178.912 209.252 177.377 210.125 175.616C210.997 173.855 212.004 172.307 212.931 170.643C221.218 155.921 225.915 139.456 226.641 122.582C227.966 93.3319 219.143 67.47 200.075 45.3314C182.436 24.8016 160.031 12.3703 133.221 8.385C106.27 4.37531 81.2114 9.90234 58.1415 24.375C54.2716 26.8104 50.581 29.5189 47.0977 32.4797C46.7499 32.7783 46.4143 33.0891 46.0482 33.3572C44.0408 34.8258 41.9114 34.6491 40.5568 32.9184C39.2023 31.1878 39.5379 29.2622 41.3805 27.6839C46.7537 23.0714 52.5469 18.9707 58.6845 15.4355C73.278 6.94696 89.5644 1.77268 106.386 0.280312C106.759 0.216351 107.127 0.122613 107.485 0L126.668 0Z" fill="black"/>
<path d="M60.3442 54.6914C66.975 54.7147 73.5841 55.4481 80.0583 56.8791C81.9497 57.2934 82.8467 56.8791 83.5056 54.923C86.7638 45.0938 90.9739 35.752 97.8442 27.8545C102.115 22.9186 107.18 19.1161 113.842 18.0131C120.823 16.8492 126.723 19.2319 131.946 23.6681C133.361 24.8869 134.588 25.4414 136.613 25.1184C142.056 24.2531 146.589 26.1056 149.463 30.9623C152.337 35.8191 151.971 40.5722 148.67 45.0816C148.274 45.5367 148.019 46.0979 147.939 46.6958C147.859 47.2937 147.956 47.902 148.219 48.4453C149.156 50.529 149.935 52.6801 150.549 54.8803C151.098 57.0984 152.233 57.2752 154.21 56.8486C161.342 55.2419 168.648 54.5376 175.956 54.7523C180.303 54.8522 184.614 55.5515 188.769 56.8303C202.595 61.2666 208.52 72.2841 204.676 86.3119C202.126 95.617 197.006 103.49 191.088 110.925C189.868 112.472 188.562 113.971 187.232 115.446C186.329 116.445 186.17 117.274 187.14 118.389C189.465 121.107 191.674 123.923 193.907 126.72C194.146 127.054 194.475 127.313 194.857 127.467C195.239 127.62 195.656 127.661 196.061 127.585C201.985 127.024 206.781 129.645 209.185 134.654C211.589 139.663 210.613 144.733 206.464 149.096C206.077 149.453 205.786 149.901 205.615 150.399C205.445 150.896 205.401 151.429 205.488 151.948C207.001 164.178 201.168 173.16 189.196 177.023C182.204 179.278 175.004 179.644 167.75 179.095C162.967 178.781 158.218 178.088 153.545 177.023C151.953 176.646 151.257 177.151 150.757 178.705C148.2 186.627 144.887 194.226 140.164 201.136C136.864 205.963 133.038 210.277 127.9 213.214C120.414 217.48 112.939 217.303 105.63 212.818C98.5703 208.492 94.0857 201.886 90.199 194.817C87.4453 189.722 85.1836 184.376 83.4446 178.852C82.926 177.243 82.2548 176.633 80.5342 177.023C76.5378 177.976 72.4677 178.587 68.3677 178.852C67.8763 178.877 67.4019 179.04 66.9993 179.322C66.5966 179.605 66.2821 179.995 66.0918 180.448C63.0411 185.865 58.4527 188.522 53.3457 187.87C47.6408 187.139 43.7602 183.495 42.1616 177.328C42.107 176.917 41.9543 176.526 41.7165 176.187C41.4786 175.847 41.1625 175.57 40.7949 175.378C29.8487 170.119 25.8522 159.175 29.8609 146.25C32.5212 137.67 37.3536 130.309 42.8633 123.344C44.1385 121.735 45.432 120.126 46.8476 118.645C47.9947 117.427 47.891 116.555 46.8476 115.361C42.1627 110.248 38.0692 104.625 34.6445 98.5969C31.1606 92.3569 28.4759 85.8 28.4149 78.5302C28.3416 69.5967 32.4602 63.0825 40.2946 58.9631C46.6768 55.5567 53.6935 54.7523 60.3442 54.6914ZM81.5592 116.939C81.663 123.033 81.9131 129.127 82.4135 135.172C82.4213 135.733 82.5688 136.284 82.8425 136.774C83.1162 137.264 83.5076 137.679 83.9815 137.981C93.9621 144.826 104.46 150.888 115.38 156.11C115.876 156.385 116.432 156.535 116.999 156.544C117.567 156.554 118.127 156.423 118.632 156.165C129.623 150.899 140.186 144.787 150.226 137.883C151.001 137.347 151.629 136.799 151.678 135.732C151.745 134.136 151.995 132.551 152.081 130.955C152.698 120.242 152.574 109.5 151.709 98.8041C151.704 98.2429 151.558 97.6918 151.285 97.2011C151.012 96.7105 150.621 96.2958 150.147 95.9949C140.163 89.1537 129.666 83.0928 118.748 77.8659C118.252 77.5918 117.696 77.4434 117.129 77.4338C116.562 77.4243 116.001 77.5538 115.496 77.8111C104.505 83.0608 93.9412 89.161 83.9022 96.0558C83.4569 96.3369 83.0883 96.724 82.8295 97.1824C82.5708 97.6408 82.4299 98.1561 82.4196 98.6822C81.9192 104.77 81.6935 110.851 81.5592 116.939ZM172.814 62.2233C167.145 62.0588 161.599 62.9789 156.047 63.9052C154.052 64.2342 153.551 64.9289 154.082 66.952C156.014 74.314 157.365 81.8161 158.121 89.3892C158.179 90.5832 158.523 91.7459 159.125 92.779C159.727 93.8121 160.57 94.6852 161.581 95.3245C166.694 98.9138 171.343 103.064 176.072 107.171C177.64 108.536 178.842 111.217 180.843 110.967C182.845 110.717 183.851 108.158 185.163 106.5C190.96 99.188 196.146 91.5038 198.013 82.095C199.63 73.8624 196.28 67.6955 188.495 64.5816C183.455 62.5584 178.165 62.0588 172.814 62.2233ZM35.8343 78.9141C35.8091 80.7831 36.0704 82.645 36.6092 84.435C39.3915 94.3861 45.4137 102.381 51.9424 110.096C53.1017 111.473 53.8156 111.345 54.9932 110.163C60.8458 104.387 67.1436 99.0793 73.8286 94.2886C74.3917 93.9039 74.8597 93.3961 75.197 92.8037C75.5342 92.2114 75.7319 91.5501 75.775 90.87C76.601 82.6939 78.0285 74.5897 80.0461 66.623C80.4671 64.9289 80.0461 64.3561 78.3803 64.0027C71.2996 62.5274 64.0618 61.944 56.8358 62.2659C52.6429 62.3807 48.5117 63.3036 44.6694 64.9838C38.8241 67.6406 35.6269 71.9916 35.8343 78.9141ZM117.528 208.821C119.126 208.918 121.225 208.339 123.239 207.334C126.723 205.591 129.45 202.952 131.836 199.96C137.474 192.898 140.915 184.726 143.856 176.256C144.307 174.952 143.624 174.671 142.636 174.397C134.367 172.04 126.276 169.1 118.425 165.598C117.978 165.393 117.491 165.289 116.999 165.296C116.507 165.302 116.023 165.418 115.581 165.634C107.727 169.13 99.6347 172.065 91.3644 174.415C90.077 174.769 89.8634 175.415 90.3088 176.56C91.2424 178.998 92.06 181.435 93.0606 183.812C96.2578 191.447 100.108 198.681 106.405 204.293C109.394 206.938 112.744 208.79 117.528 208.821ZM35.816 155.805C35.6208 160.717 37.7136 164.897 42.3081 167.816C43.327 168.462 44.0226 168.425 44.8219 167.475C46.1713 165.766 47.9448 164.439 49.9662 163.626C51.9876 162.813 54.1868 162.542 56.3454 162.84C58.5041 163.138 60.5471 163.995 62.2718 165.325C63.9965 166.656 65.3428 168.413 66.1773 170.424C66.225 170.624 66.3123 170.813 66.4341 170.979C66.5558 171.146 66.7096 171.286 66.8863 171.392C67.063 171.498 67.2592 171.568 67.4633 171.597C67.6673 171.627 67.8753 171.615 68.0748 171.563C71.5405 171.113 74.994 170.655 78.4475 170.046C80.1986 169.735 80.4793 169.071 80.0644 167.42C78.0533 159.462 76.6258 151.368 75.7933 143.203C75.7742 142.56 75.6095 141.929 75.3115 141.358C75.0135 140.787 74.59 140.291 74.0727 139.906C67.2725 135.024 60.8665 129.617 54.9138 123.734C53.785 122.606 53.0834 122.606 52.0095 123.831C47.3479 129.188 43.1074 134.8 39.8797 141.174C37.6099 145.598 35.8282 150.205 35.816 155.781V155.805ZM117.149 68.8594C117.869 68.5791 118.657 68.2988 119.413 67.9697C125.76 65.2104 132.247 62.7839 138.847 60.6999C144.46 58.9449 144.387 58.9936 142.385 53.4788C141.525 51.1083 140.555 49.3228 137.608 49.9078C137 49.9425 136.391 49.8512 135.82 49.6397C127.888 47.6105 123.983 39.3413 127.498 31.852C127.955 30.8892 128.382 30.1214 127.302 29.2805C124.435 27.0502 121.427 25.3012 117.632 25.1672C112.75 24.9966 108.98 27.2147 105.666 30.4139C97.8137 37.9945 93.7562 47.7323 90.2539 57.7809C89.7109 59.3409 90.8641 59.4019 91.7671 59.6578C99.8008 61.9942 107.669 64.8647 115.319 68.25C115.856 68.4633 116.442 68.6278 117.149 68.8594ZM172.423 171.789C180.099 171.819 185.053 170.991 189.392 169.035C195.646 166.207 198.501 161.661 198.355 155.019C198.318 153.441 197.83 152.648 196.225 152.447C194.083 152.175 192.048 151.356 190.314 150.07C188.581 148.783 187.209 147.073 186.331 145.103C185.452 143.133 185.096 140.97 185.298 138.823C185.5 136.675 186.252 134.616 187.482 132.844C187.786 132.508 187.95 132.068 187.941 131.615C187.932 131.162 187.75 130.73 187.433 130.406C185.603 128.182 183.772 125.933 181.942 123.703C181.191 122.783 180.49 122.533 179.501 123.508C173.347 129.517 166.76 135.067 159.793 140.114C159.366 140.432 159.015 140.842 158.766 141.313C158.517 141.785 158.376 142.305 158.353 142.838C157.499 151.16 156.054 159.412 154.027 167.529C153.637 169.144 154.1 169.699 155.65 169.997C161.349 171.07 167.054 171.874 172.399 171.795L172.423 171.789ZM74.5913 102.93C69.2919 106.969 64.2485 111.332 59.49 115.995C58.532 116.939 59.0629 117.591 59.7951 118.261C62.0831 120.376 64.3041 122.564 66.6776 124.575C69.0511 126.585 71.4307 128.95 74.6096 130.766C74.3533 121.473 74.3472 112.539 74.5669 102.948L74.5913 102.93ZM159.738 130.9C165.005 126.865 170.022 122.514 174.76 117.871C175.779 116.86 174.919 116.232 174.26 115.629C171.569 113.191 168.884 110.711 166.145 108.316C164.154 106.467 162.011 104.787 159.738 103.295V130.9ZM107.698 73.3383C107.403 73.0837 107.084 72.8573 106.746 72.6619C101.041 70.3303 95.2137 68.3083 89.2899 66.6047C87.9109 66.1964 87.5448 66.9338 87.2642 68.0124C85.8303 73.6186 84.8236 79.3041 83.9205 85.02C83.8351 85.5624 83.5178 86.3241 84.2195 86.6714C84.7564 86.9334 85.1957 86.3789 85.629 86.0986C89.8024 83.4417 94.0003 80.8275 98.3507 78.4631C101.401 76.7813 104.44 75.1299 107.698 73.3383V73.3383ZM107.387 160.747C107.015 159.967 106.209 159.815 105.557 159.473C98.8449 155.915 92.2003 152.161 85.812 148.023C85.3239 147.706 84.8236 147.036 84.2195 147.341C83.4568 147.731 83.8412 148.59 83.9388 149.199C84.7971 154.769 85.8771 160.294 87.1788 165.774C87.5815 167.487 88.3625 167.682 89.9427 167.213C95.3426 165.604 100.669 163.782 105.898 161.692C106.447 161.484 107.106 161.411 107.387 160.747ZM150.25 148.56C150.342 147.341 150.049 146.872 148.993 147.554C142.025 152.051 134.838 156.165 127.485 160.004C126.265 160.613 126.766 161.107 127.662 161.46C133.301 163.732 139.057 165.703 144.905 167.365C145.784 167.615 146.382 167.426 146.644 166.475C148.168 160.581 149.372 154.608 150.25 148.584V148.56ZM126.088 73.1738C129.371 74.947 132.135 76.3486 134.807 77.9025C139.463 80.6203 144.063 83.4417 148.701 86.2083C149.366 86.6044 150.452 87.427 150.214 85.6964C149.418 79.6086 148.234 73.5777 146.669 67.6406C146.431 66.7449 145.955 66.3488 145.015 66.6108C138.574 68.4064 132.252 70.6065 126.088 73.1981V73.1738ZM54.6271 170.138C53.9419 170.115 53.2594 170.234 52.6229 170.489C51.9864 170.743 51.4098 171.127 50.9297 171.615C50.4495 172.104 50.0763 172.687 49.8336 173.328C49.591 173.968 49.4842 174.652 49.5201 175.336C49.4908 176.001 49.5984 176.666 49.8363 177.288C50.0743 177.911 50.4374 178.478 50.9035 178.955C51.3695 179.432 51.9284 179.808 52.5458 180.061C53.1631 180.313 53.8258 180.437 54.4928 180.424C55.1756 180.446 55.8559 180.331 56.494 180.088C57.132 179.844 57.7149 179.475 58.2086 179.004C58.7024 178.532 59.097 177.967 59.3694 177.341C59.6418 176.716 59.7865 176.042 59.7951 175.36C59.8016 173.983 59.2611 172.661 58.2923 171.681C57.3234 170.702 56.0053 170.147 54.6271 170.138ZM197.732 134.91C197.046 134.9 196.365 135.03 195.731 135.291C195.097 135.552 194.522 135.939 194.042 136.428C193.561 136.918 193.185 137.499 192.937 138.138C192.688 138.777 192.572 139.459 192.595 140.144C192.64 141.523 193.23 142.829 194.236 143.775C195.242 144.72 196.583 145.229 197.964 145.19C198.629 145.181 199.286 145.04 199.895 144.775C200.505 144.509 201.055 144.125 201.514 143.644C201.973 143.163 202.33 142.596 202.566 141.975C202.802 141.354 202.912 140.692 202.888 140.028C202.924 139.344 202.814 138.66 202.567 138.021C202.32 137.382 201.941 136.802 201.455 136.319C200.968 135.836 200.385 135.461 199.744 135.218C199.103 134.975 198.417 134.87 197.732 134.91ZM143.886 37.5436C143.897 36.1648 143.374 34.8352 142.425 33.8333C141.477 32.8314 140.177 32.235 138.798 32.1689C137.416 32.1818 136.095 32.74 135.123 33.7217C134.152 34.7035 133.608 36.0292 133.611 37.4095C133.603 38.0833 133.727 38.7523 133.977 39.3782C134.227 40.004 134.598 40.5746 135.069 41.0573C135.54 41.54 136.101 41.9253 136.721 42.1913C137.341 42.4573 138.007 42.5987 138.682 42.6075C139.356 42.6163 140.026 42.4923 140.653 42.2426C141.28 41.9929 141.851 41.6223 142.334 41.1521C142.818 40.6819 143.203 40.1212 143.47 39.502C143.736 38.8829 143.878 38.2174 143.886 37.5436V37.5436Z" fill="black"/>
<path d="M114.599 113.246H122.476C123.693 113.187 124.912 113.306 126.094 113.6C129.029 114.483 130.274 116.97 129.145 119.84C128.895 120.486 128.567 121.1 128.169 121.668C123.178 128.676 118.175 135.669 113.159 142.649C111.432 145.043 109.358 145.537 107.534 144.166C105.709 142.795 105.557 140.729 107.259 138.322C110.92 133.106 114.685 127.92 118.388 122.71C118.73 122.235 119.389 121.759 119.126 121.144C118.864 120.528 118.046 120.79 117.479 120.784C115.124 120.748 112.763 120.821 110.407 120.748C105.148 120.583 103.085 116.878 106.069 112.564C111.048 105.27 116.259 98.1094 121.421 90.9797C122.934 88.8895 124.996 88.5422 126.759 89.9011C128.523 91.26 128.7 93.3075 127.241 95.3855C123.654 100.492 119.993 105.55 116.375 110.62C115.868 111.351 115.38 112.125 114.599 113.246Z" fill="black"/>
</g>
<defs>
<clipPath id="clip0_213_93">
<rect width="234" height="234" fill="white"/>
</clipPath>
</defs>
</svg>
