<svg width="234" height="234" viewBox="0 0 234 234" fill="none" xmlns="http://www.w3.org/2000/svg">
<path d="M10.2428 0H201.278C209.643 3.13783 211.649 5.85443 211.649 14.0409C211.649 33.5353 211.649 53.0297 211.649 72.5241C211.649 74.966 211.724 77.4078 211.649 79.8497C211.587 81.2721 211.983 81.9498 213.757 81.8155C215.531 81.6812 217.503 81.8155 219.372 81.8155C228.999 81.8155 234 86.2902 234 94.8918V220.771C234 229.531 229.019 234 219.277 234H36.9127C27.3064 234 22.3258 229.531 22.319 220.893C22.319 204.671 22.319 188.451 22.319 172.232C22.319 166.293 22.2371 160.353 22.3668 154.413C22.4077 152.581 21.7595 152.026 19.7809 152.172C17.8024 152.319 15.8715 152.209 13.9134 152.172C5.36459 152.154 0.00877102 147.423 0.00877102 139.798C0.00877102 97.3174 0.00877102 54.8285 0.00877102 12.3315C-0.0326372 11.1911 0.0726693 10.0501 0.322615 8.9312C1.59164 4.12069 5.38506 1.59333 10.2428 0ZM83.771 88.6344C83.8348 88.9489 83.9307 89.2575 84.0576 89.5562C89.4066 97.8587 94.7897 106.143 100.091 114.47C100.773 115.568 101.708 115.587 102.82 115.587C113.968 115.587 125.112 115.587 136.251 115.587C138.933 115.587 140.474 116.844 140.522 118.889C140.57 120.934 139.028 122.278 136.429 122.418C135.664 122.461 134.894 122.418 134.129 122.418C100.343 122.418 66.5596 122.406 32.7782 122.381C30.6973 122.381 29.8649 122.632 29.8717 124.823C29.9581 156.95 29.9809 189.081 29.9399 221.217C29.9399 225.582 31.6866 227.114 36.558 227.114H219.611C224.448 227.114 226.236 225.514 226.236 221.186C226.236 189.059 226.252 156.928 226.284 124.793C226.284 122.919 225.813 122.381 223.657 122.387C201.272 122.467 178.893 122.436 156.508 122.43C155.575 122.486 154.639 122.443 153.717 122.302C151.671 121.838 150.47 120.587 150.688 118.639C150.893 116.808 152.155 115.782 154.215 115.587C154.973 115.52 155.744 115.556 156.508 115.556C178.893 115.556 201.272 115.556 223.657 115.605C225.82 115.605 226.331 115.056 226.29 113.163C226.154 107.15 226.243 101.137 226.236 95.1176C226.236 89.9469 224.742 88.5917 219.031 88.5917H83.771V88.6344ZM61.1538 6.83118C66.7006 15.4266 72.0155 23.5642 77.1871 31.7751C78.1628 33.3257 79.2339 33.814 81.192 33.7957C91.9992 33.7103 102.806 33.7469 113.62 33.7591C116.595 33.7591 118.355 35.0777 118.335 37.1838C118.314 39.29 116.52 40.5598 113.559 40.6086C112.877 40.6086 112.194 40.6086 111.512 40.6086C77.8125 40.6086 44.113 40.5943 10.4134 40.5659C8.20283 40.5659 7.60243 40.9932 7.60243 43.0444C7.68885 73.6534 7.70932 104.263 7.66384 134.872C7.66384 136.471 7.66384 138.07 7.66384 139.67C7.66384 143.595 9.51961 145.256 13.8384 145.286C15.7073 145.212 17.5794 145.226 19.4466 145.329C21.855 145.573 22.3736 144.718 22.3599 142.686C22.2712 126.624 22.3599 110.556 22.2917 94.4583C22.2917 91.3144 22.8921 88.4024 25.2118 85.9117C28.1797 82.7678 32.0345 81.6384 36.5443 81.675C91.3442 81.7198 146.153 81.7463 200.971 81.7544C203.468 81.7544 204.055 81.1439 204.028 78.989C203.905 67.0359 203.905 55.0829 204.028 43.1298C204.028 41.042 203.427 40.4987 201.087 40.5048C178.45 40.5903 155.812 40.5598 133.181 40.5475C130.213 40.5475 128.405 39.2289 128.405 37.1472C128.405 35.0655 130.145 33.7408 133.106 33.7042C133.788 33.7042 134.471 33.7042 135.153 33.7042C157.108 33.7042 179.064 33.6675 201.012 33.7652C203.557 33.7652 204.117 33.1181 204.055 30.9692C203.891 25.0355 204.001 19.0895 203.994 13.1496C203.994 8.15591 202.452 6.78234 196.891 6.78234H61.1538V6.83118ZM69.6822 33.753C63.9102 24.8401 58.4179 16.3668 52.987 7.86288C52.3457 6.8495 51.4792 6.8495 50.4353 6.8495C38.1954 6.8495 25.9555 6.8495 13.7156 6.8495C9.58784 6.8495 7.69113 8.59544 7.67748 12.3437C7.67748 18.656 7.75253 24.9683 7.61608 31.2684C7.57514 33.2036 8.03226 33.8201 10.3452 33.8079C29.2099 33.7103 48.0815 33.753 66.9735 33.753H69.6822ZM91.6513 115.556C91.5882 115.228 91.4923 114.905 91.3647 114.592C86.0089 106.295 80.6258 98.0113 75.3177 89.6844C74.6354 88.5673 73.653 88.61 72.5409 88.61C60.4556 88.61 48.3726 88.61 36.2919 88.61C31.7753 88.61 30.0082 90.2094 29.9877 94.3179C29.9877 100.642 30.0423 106.961 29.9399 113.279C29.9399 115.031 30.4107 115.605 32.4712 115.587C43.6195 115.495 54.7677 115.544 65.9024 115.544L91.6513 115.556Z" fill="black"/>
<path d="M172.159 137.057C176.021 137.106 178.982 138.15 181.37 140.28C190.771 148.656 200.248 156.965 209.486 165.487C216.309 171.793 216.206 180.981 209.343 187.25C200.178 195.618 190.921 203.908 181.574 212.121C176.396 216.699 168.666 216.681 163.726 212.261C158.787 207.841 158.787 200.925 163.89 196.291C170.749 190.056 177.669 183.874 184.651 177.745C185.914 176.634 185.968 176.036 184.651 174.9C177.669 168.771 170.749 162.589 163.89 156.354C160.363 153.173 159.155 149.328 160.588 145.03C161.952 140.927 165.159 138.357 169.839 137.35C170.605 137.21 171.38 137.112 172.159 137.057V137.057ZM206.825 176.292C206.736 174.461 206.382 172.666 205.017 171.372C195.465 162.282 185.47 153.558 175.482 144.847C174.022 143.571 172.07 143.595 170.242 144.48C169.44 144.85 168.776 145.421 168.332 146.124C167.889 146.827 167.684 147.631 167.745 148.436C167.779 149.987 168.83 151.092 170.003 152.142C177.776 159.06 185.538 166.002 193.289 172.965C196.168 175.547 196.154 177.073 193.241 179.68C185.368 186.737 177.49 193.792 169.607 200.845C167.226 202.988 167.083 205.454 169.082 207.328C171.081 209.203 174.035 209.16 176.505 206.974C185.602 198.867 194.699 190.744 203.796 182.604C205.683 180.932 206.769 178.668 206.825 176.292V176.292Z" fill="black"/>
<path d="M96.154 148.241C96.1881 151.574 94.6803 154.272 92.0945 156.58C85.2718 162.648 78.5447 168.789 71.6742 174.784C70.3097 176.005 70.3097 176.616 71.6742 177.8C78.5447 183.807 85.3196 189.924 92.1013 195.998C95.6355 199.16 96.9932 202.933 95.6969 207.261C93.1793 215.71 81.7718 218.341 74.5875 212.047C65.2336 203.849 56.0434 195.498 46.7986 187.207C45.418 185.964 44.285 184.519 43.4487 182.934C40.4672 177.269 41.4019 170.456 46.3074 165.945C55.7955 157.219 65.411 148.607 75.1538 140.109C79.0495 136.703 83.9005 136.099 88.8606 138.113C93.6296 140.042 95.9971 143.559 96.154 148.241ZM49.5004 176.426C49.5004 179.125 50.865 181.194 52.9527 183.044C61.3992 190.557 69.8139 198.086 78.1967 205.631C78.955 206.354 79.7567 207.038 80.5983 207.683C81.5254 208.37 82.707 208.721 83.9096 208.667C85.1122 208.613 86.2483 208.157 87.0935 207.39C87.8937 206.643 88.373 205.667 88.4466 204.635C88.5203 203.603 88.1836 202.58 87.496 201.749C86.9721 201.149 86.3973 200.585 85.7767 200.064L63.0639 179.723C59.9801 176.964 59.9869 175.614 63.0639 172.855C70.9373 165.798 78.8153 158.743 86.6978 151.69C88.9834 149.633 89.0857 146.989 87.0935 145.207C85.1013 143.424 82.1607 143.461 79.841 145.518C70.6167 153.727 61.4151 161.964 52.2363 170.23C51.3165 171.031 50.597 171.997 50.1254 173.066C49.6538 174.134 49.4408 175.279 49.5004 176.426Z" fill="black"/>
<path d="M117.188 216.254C108.428 216.254 102.629 208.812 105.522 201.077C110.393 188.031 115.374 175.022 120.313 162.007C122.626 155.902 124.871 149.749 127.293 143.693C127.853 142.31 128.713 141.04 129.822 139.955C130.931 138.869 132.268 137.99 133.757 137.367C135.245 136.744 136.857 136.39 138.499 136.324C140.141 136.258 141.781 136.482 143.326 136.984C144.871 137.485 146.291 138.254 147.504 139.246C148.717 140.239 149.7 141.435 150.396 142.767C151.092 144.1 151.488 145.541 151.562 147.011C151.635 148.48 151.385 149.947 150.824 151.33C143.601 170.397 136.376 189.464 129.149 208.531C128.353 210.8 126.758 212.779 124.603 214.17C122.447 215.562 119.846 216.293 117.188 216.254ZM117.714 209.38C120.054 209.276 121.364 207.738 122.203 205.509C127.238 192.116 132.342 178.746 137.411 165.371C139.508 159.901 141.568 154.429 143.592 148.955C143.989 148.057 144.021 147.064 143.683 146.147C143.345 145.23 142.659 144.448 141.743 143.937C139.949 142.783 138.08 142.918 136.285 143.937C134.921 144.737 134.443 146.074 133.952 147.368C129.995 157.799 126.044 168.23 122.101 178.661C119.003 186.865 115.865 195.058 112.815 203.275C111.567 206.584 113.702 209.392 117.714 209.392V209.38Z" fill="black"/>
<path d="M164.381 105.527C163.392 105.507 162.447 105.153 161.738 104.536C161.028 103.918 160.605 103.084 160.554 102.2C160.547 101.743 160.642 101.289 160.832 100.865C161.022 100.441 161.304 100.055 161.662 99.7284C162.02 99.4021 162.446 99.1423 162.916 98.9639C163.386 98.7855 163.891 98.6921 164.402 98.6889C164.891 98.6792 165.378 98.7568 165.834 98.9173C166.29 99.0778 166.706 99.3179 167.057 99.6237C167.408 99.9294 167.688 100.295 167.88 100.698C168.072 101.102 168.172 101.535 168.174 101.974C168.19 102.431 168.104 102.886 167.921 103.313C167.738 103.74 167.462 104.13 167.109 104.461C166.756 104.792 166.333 105.056 165.865 105.239C165.396 105.422 164.892 105.52 164.381 105.527V105.527Z" fill="black"/>
<path d="M187.831 102.029C187.806 102.951 187.384 103.83 186.653 104.48C185.922 105.131 184.939 105.504 183.908 105.521C182.894 105.503 181.93 105.126 181.228 104.472C180.525 103.818 180.142 102.942 180.162 102.035C180.182 101.128 180.603 100.265 181.334 99.6368C182.065 99.0081 183.044 98.665 184.058 98.6828C185.047 98.6982 185.992 99.0547 186.695 99.6781C187.397 100.301 187.804 101.143 187.831 102.029V102.029Z" fill="black"/>
<path d="M206.463 98.6828C207.453 98.6988 208.395 99.0651 209.083 99.7015C209.771 100.338 210.149 101.192 210.134 102.078C210.138 102.759 209.913 103.425 209.49 103.991C209.067 104.558 208.464 104.997 207.759 105.254C207.054 105.511 206.279 105.574 205.534 105.433C204.79 105.293 204.109 104.956 203.579 104.467C203.05 103.977 202.697 103.357 202.564 102.686C202.432 102.016 202.527 101.325 202.837 100.703C203.148 100.081 203.659 99.5558 204.305 99.1958C204.951 98.8359 205.703 98.6572 206.463 98.6828V98.6828Z" fill="black"/>
<path d="M97.5733 66.2423H135.617C136.465 66.1971 137.317 66.2196 138.162 66.3095C140.161 66.6209 141.395 67.7138 141.457 69.5516C141.518 71.5115 140.27 72.6594 138.168 73.0441C137.49 73.1214 136.804 73.1398 136.122 73.099H58.2677C57.6716 73.1308 57.0736 73.1165 56.4802 73.0563C54.3788 72.7327 53.0688 71.652 53.0688 69.6737C53.0688 67.6955 54.3379 66.6209 56.4802 66.2912C57.2418 66.2229 58.0082 66.2066 58.7726 66.2423H97.5733Z" fill="black"/>
<path d="M85.8247 50.7058C94.0801 50.7058 102.336 50.7058 110.591 50.7058C113.825 50.7058 115.524 51.9269 115.51 54.1494C115.497 56.3719 113.791 57.5503 110.53 57.5503C93.8459 57.5503 77.1644 57.5503 60.4852 57.5503C57.3467 57.5503 55.5933 56.2131 55.7093 53.9784C55.798 51.9269 57.4491 50.7119 60.3078 50.7058C68.802 50.6692 77.3099 50.7058 85.8247 50.7058Z" fill="black"/>
<path d="M171.627 66.2423C175.72 66.2423 179.814 66.2423 183.908 66.2423C186.678 66.2423 188.411 67.5978 188.445 69.6126C188.479 71.6275 186.725 73.0684 184.003 73.0746C175.666 73.103 167.331 73.103 158.998 73.0746C156.269 73.0746 154.495 71.7252 154.461 69.6981C154.427 67.671 156.16 66.2667 158.903 66.2423C163.119 66.2179 167.369 66.2423 171.627 66.2423Z" fill="black"/>
<path d="M32.5188 57.5564C30.7313 57.5564 28.9506 57.6174 27.1698 57.5564C24.8092 57.4526 23.2604 56.0178 23.2877 54.1006C23.315 52.1834 24.8638 50.7791 27.2995 50.7302C30.8677 50.6631 34.436 50.657 37.9974 50.7302C38.5087 50.7153 39.018 50.7934 39.4945 50.9598C39.971 51.1262 40.4049 51.3774 40.7697 51.6982C41.1346 52.019 41.4229 52.4027 41.6172 52.8262C41.8115 53.2496 41.9077 53.7039 41.9 54.1616C41.9 56.0422 40.2626 57.4465 37.8951 57.5381C36.0871 57.6113 34.2995 57.5564 32.5188 57.5564Z" fill="black"/>
<path d="M187.899 20.2072C187.896 21.1307 187.489 22.0165 186.767 22.6757C186.044 23.335 185.062 23.7155 184.031 23.7362C183.529 23.7334 183.033 23.6422 182.57 23.4678C182.108 23.2934 181.688 23.0392 181.336 22.7197C180.624 22.0744 180.227 21.2025 180.234 20.2957C180.24 19.3889 180.649 18.5214 181.37 17.8842C182.091 17.247 183.065 16.8922 184.078 16.8979C185.068 16.9065 186.016 17.2546 186.726 17.8703C187.437 18.4861 187.857 19.3225 187.899 20.2072V20.2072Z" fill="black"/>
<path d="M142.18 23.724C141.196 23.7313 140.246 23.397 139.532 22.7914C138.817 22.1857 138.392 21.3558 138.346 20.4758C138.314 20.0214 138.386 19.5661 138.557 19.1373C138.728 18.7086 138.995 18.3153 139.34 17.9814C139.686 17.6475 140.104 17.3798 140.569 17.1946C141.033 17.0094 141.535 16.9105 142.044 16.904C143.034 16.893 143.991 17.2236 144.717 17.8272C145.442 18.4309 145.88 19.2612 145.939 20.1461C145.953 21.0621 145.569 21.9472 144.867 22.6146C144.166 23.282 143.203 23.6798 142.18 23.724V23.724Z" fill="black"/>
<path d="M165.486 20.201C165.512 20.8833 165.309 21.5569 164.904 22.135C164.498 22.7132 163.908 23.1694 163.21 23.445C162.512 23.7206 161.738 23.803 160.988 23.6814C160.237 23.5599 159.544 23.2401 158.998 22.7631C158.453 22.2862 158.079 21.6739 157.925 21.0053C157.772 20.3366 157.845 19.6421 158.137 19.0111C158.428 18.3802 158.924 17.8418 159.56 17.4651C160.196 17.0885 160.944 16.8909 161.707 16.8979C162.691 16.9053 163.635 17.2533 164.339 17.8689C165.044 18.4846 165.455 19.3203 165.486 20.201V20.201Z" fill="black"/>
</svg>
